<svg width="227" height="258" viewBox="0 0 227 258" fill="none" xmlns="http://www.w3.org/2000/svg">
<g clip-path="url(#clip0_1_55035)">
<path d="M105.066 107.89L110.362 115.978L86.428 168.197C77.6426 166.747 71.95 159.248 69.35 145.7C68.3921 140.692 68.0089 135.56 68.2005 130.305C68.3647 125.543 68.9121 122.108 69.8426 120.001L105.066 107.89Z" fill="#E9EFF8"/>
<path d="M105.066 107.89L110.362 115.978L94.4331 150.668C94.2142 147.055 93.7626 144.072 93.0784 141.718C92.23 138.817 90.9163 136.477 89.1373 134.698C87.6594 132.727 84.8404 131.154 80.6804 129.977C77.8888 129.211 73.7698 128.485 68.3235 127.801C68.6245 124.216 69.1309 121.616 69.8424 120.001L105.066 107.89Z" fill="#C9CFD7"/>
<path d="M76.452 42.5341C80.01 47.1046 82.4184 50.6626 83.6773 53.2078L102.315 111.626L100.837 111.913C86.7153 121 74.2762 123.135 63.5204 118.318C59.9077 116.676 56.6919 114.336 53.8729 111.298C52.0119 109.327 50.6434 107.466 49.7676 105.714L28.297 54.6447C27.257 50.7583 26.6412 46.4478 26.4496 41.713C26.0664 32.2435 27.9549 25.415 32.1149 21.2276C39.5592 13.7834 49.8634 15.9728 63.0277 27.7961C67.5709 31.9014 72.0457 36.814 76.452 42.5341Z" fill="#E9EFF8"/>
<path d="M79.4486 46.516C81.6108 49.636 83.0202 51.8666 83.6771 53.2076L102.315 111.626L100.837 111.913C90.9298 118.29 81.775 121.219 73.3728 120.699C79.6676 111.886 82.9244 100.158 83.1434 85.5163C83.2255 77.4973 81.9939 64.4972 79.4486 46.516Z" fill="#C9CFD7"/>
<path d="M148.869 149.025L129.862 108.547L133.269 98.6123L198.708 95.205C200.623 97.9966 202.43 101.814 204.127 106.659C206.234 112.652 207.52 118.55 207.986 124.353C209.19 140.445 203.867 152.364 192.016 160.11C182.875 166.076 172.94 166.021 162.212 159.945C158.873 158.057 155.643 155.662 152.523 152.761L148.869 149.025Z" fill="#E9EFF8"/>
<path d="M156.957 156.497C154.877 154.937 152.906 153.226 151.045 151.365L148.869 149.025L129.862 108.547L133.269 98.6123L198.708 95.205L201.089 99.3924C196.19 105.003 190.319 109.573 183.477 113.104C176.799 116.58 169.724 118.81 162.253 119.796C162.882 134.493 161.117 146.726 156.957 156.497Z" fill="#C9CFD7"/>
<path d="M215.293 8.296C220.356 12.7845 223.257 21.8708 223.996 35.5551C224.762 49.6773 221.588 63.0058 214.472 75.5407C208.423 86.2144 201.732 93.2481 194.397 96.6419C187.582 99.7892 179.248 102.088 169.396 103.539C158.448 105.153 149.28 105.071 141.89 103.292L128.055 83.7512C128.767 77.8122 131.107 70.9975 135.075 63.3069C138.88 55.9447 143.765 48.5826 149.731 41.2204C162.868 24.9635 176.169 14.0024 189.635 8.33705C201.239 3.43807 209.792 3.42439 215.293 8.296Z" fill="#E9EFF8"/>
<path d="M148.13 86.0499C152.947 91.5784 157.025 97.7363 160.364 104.524C153.248 104.962 147.09 104.551 141.89 103.292L135.158 95.5331L128.055 83.7509C128.493 80.1383 129.561 76.1014 131.258 71.6403C137.498 75.5267 143.122 80.3299 148.13 86.0499Z" fill="#C9CFD7"/>
<path d="M58.7993 155.265C59.2372 154.28 60.5235 153.185 62.6582 151.981C64.8751 150.75 66.1614 149.846 66.5172 149.272C66.9825 147.876 67.4477 146.808 67.913 146.069C68.7614 144.701 70.5267 143.538 73.2088 142.58C76.8489 141.294 81.6931 138.228 87.7416 133.384C95.2132 127.418 100.66 121.397 104.081 115.321L112.825 116.265L91.1079 140.486C87.5226 144.181 83.5952 147.192 79.3257 149.518C76.3425 151.133 73.6467 152.214 71.2383 152.761C68.3646 153.418 67.2014 155.416 67.7488 158.755C67.9678 160.014 67.9267 161.369 67.6256 162.819L66.7635 165.939C66.5993 166.541 66.613 168.293 66.8046 171.194C67.0235 174.697 67.092 177.27 67.0098 178.912C66.7635 183.619 65.313 188.244 62.6582 192.788C59.6751 197.851 57.8961 202.011 57.3214 205.268C56.5003 209.893 56.9108 213.629 58.553 216.475C59.4287 217.953 60.5919 219.445 62.0424 220.95L63.3561 224.193C63.6846 225.233 63.5751 225.808 63.0277 225.917C61.9877 226.136 60.0035 226.78 57.075 227.847C53.2161 229.27 49.7266 230.789 46.6066 232.404C43.9792 233.772 40.2844 236.974 35.5223 242.01C32.6759 245.021 29.7064 248.414 26.6138 252.191C26.3675 252.492 26.0938 252.533 25.7927 252.314C25.5464 252.123 25.3959 251.877 25.3412 251.575L24.6433 248.004C24.5064 246.8 24.438 244.747 24.438 241.846C24.438 239.684 27.4349 236.55 33.4286 232.445L42.3781 226.944C46.3466 221.798 48.8371 218.145 49.8497 215.983C50.5066 214.559 50.4792 212.657 49.7676 210.276C49.3571 208.826 48.4676 206.664 47.0992 203.79C46.0592 201.573 45.9497 198.261 46.7708 193.855C47.6192 189.175 49.3024 184.687 51.8203 180.39C53.9003 176.804 55.5561 171.837 56.7877 165.488L58.7993 155.265Z" fill="#6791B9"/>
<path d="M65.8602 158.878C66.1886 158.385 66.5444 158.029 66.9275 157.811L67.6254 157.482L67.7486 158.755C67.9676 160.014 67.9265 161.368 67.6254 162.819L66.7633 165.939C66.5991 166.541 66.6128 168.293 66.8044 171.194C67.0233 174.697 67.0918 177.27 67.0097 178.912C66.7633 183.619 65.3128 188.244 62.658 192.788C59.6749 197.851 57.8959 202.011 57.3212 205.268C56.5001 209.893 56.9106 213.629 58.5528 216.475C59.4286 217.953 60.5917 219.445 62.0423 220.95L63.3559 224.193C63.6844 225.233 63.5749 225.808 63.0275 225.917C61.9875 226.136 60.0033 226.779 57.0749 227.847C53.2159 229.27 49.7264 230.789 46.6064 232.404C44.0885 233.69 37.9579 239.629 28.2147 250.221C27.8041 249.865 27.5031 249.413 27.3115 248.866C26.9283 247.826 27.462 245.896 28.9126 243.077C30.281 240.423 34.0852 236.659 40.3253 231.788C47.7422 226.013 51.9432 222.592 52.9285 221.525C54.7622 219.527 55.3096 216.311 54.5706 211.877L53.8317 206.869C53.7222 205.062 54.0096 203.571 54.6938 202.394C56.1991 199.821 57.937 194.58 59.9075 186.671C61.7959 179.117 63.0275 172.726 63.6023 167.499C64.0675 163.284 64.8202 160.411 65.8602 158.878Z" fill="#567C9D"/>
<path d="M104.08 115.321L112.825 116.265L91.1077 140.486C88.5077 143.168 85.7161 145.495 82.7329 147.465C84.2108 144.701 84.895 142.32 84.7856 140.322C84.7308 138.488 84.0603 137.407 82.774 137.079C86.9887 134.15 90.834 130.976 94.3098 127.555C98.552 123.422 101.809 119.344 104.08 115.321Z" fill="#567C9D"/>
<path d="M67.0509 115.772C63.0277 111.174 60.0308 107.247 58.0603 103.99C56.6098 101.609 56.6645 100.022 58.2245 99.2278L61.0161 98.7763L64.6698 103.621C67.6256 107.014 70.3899 109.135 72.9625 109.984C75.7267 110.86 77.5741 112.269 78.5047 114.212C78.9699 115.17 79.4489 117.401 79.9415 120.904C80.8994 117.647 83.7594 112.94 88.5216 106.782C91.8332 102.539 94.4469 99.4605 96.3627 97.5447L97.8816 103.949C97.5532 107.069 95.8016 110.969 92.6269 115.649C90.6016 118.632 88.2889 121.547 85.6889 124.393C84.9773 126.118 83.9236 126.952 82.5278 126.897C81.5152 126.843 79.6541 126.172 76.9446 124.886C74.7552 123.873 71.4572 120.835 67.0509 115.772Z" fill="#6791B9"/>
<path d="M96.3628 97.5447L97.8818 103.949C97.6081 106.85 96.0755 110.435 93.2839 114.705C91.3954 117.606 89.1512 120.521 86.5512 123.449C87.2628 120.466 87.5775 118.304 87.4954 116.963C87.3859 114.746 86.387 113.186 84.4985 112.283C86.4964 109.354 88.9459 106.152 91.847 102.676C94.0639 99.9942 95.5691 98.2836 96.3628 97.5447Z" fill="#567C9D"/>
<path d="M61.0161 98.7766L62.7403 101.24C64.1635 103.128 65.614 104.77 67.0919 106.166C64.2456 105.126 62.4393 106.139 61.673 109.204C60.0308 107.015 58.8266 105.277 58.0603 103.99C56.6098 101.609 56.6645 100.022 58.2245 99.2282L61.0161 98.7766Z" fill="#567C9D"/>
<path d="M6.21022 37.074L60.2769 75.3764L67.0096 92.2902C66.1885 94.7807 64.6011 97.2028 62.2474 99.5565C58.6348 103.114 53.9137 105.591 48.0842 106.987C45.7852 107.617 43.5547 107.849 41.3926 107.685C39.121 107.521 37.6294 106.96 36.9178 106.002C36.1241 104.962 30.2535 93.8912 19.3061 72.79C8.30392 51.5794 2.55651 40.2488 2.06388 38.7982C1.54387 37.2109 1.65335 36.2256 2.3923 35.8424C3.18599 35.4045 4.45863 35.8151 6.21022 37.074Z" fill="#DBDCDC"/>
<path d="M13.0662 41.9595L60.277 75.3765L67.0097 92.2903C66.1886 94.7809 64.6012 97.203 62.2475 99.5567C58.6896 103.06 54.0643 105.523 48.3717 106.946C49.0559 106.727 50.0685 106.153 51.4096 105.222C54.6391 103.06 57.458 99.9946 59.8665 96.0262C58.7444 94.4114 43.1443 76.3892 13.0662 41.9595Z" fill="#B4B4B5"/>
<path d="M145.626 132.85C149.54 142.265 150.635 151.721 148.91 161.218C147.35 169.839 143.765 177.352 138.154 183.756C132.708 189.996 126.468 193.937 119.434 195.579C112.017 197.331 105.162 196.085 98.8668 191.843C92.9278 187.848 89.0278 182.251 87.1667 175.053C85.4973 168.676 85.5109 161.492 87.2078 153.5C88.7678 146.22 91.4773 139.2 95.3363 132.44C99.1131 125.871 103.273 120.781 107.816 117.168L132.325 113.473L145.626 132.85Z" fill="#F9BE00"/>
<path d="M145.626 132.85C148.856 140.623 150.156 148.491 149.526 156.456C148.951 163.708 146.858 170.441 143.245 176.654C139.796 182.593 135.418 187.314 130.108 190.817C124.744 194.402 119.215 196.222 113.523 196.277C114.617 195.045 115.137 192.719 115.083 189.298C115.001 185.603 115.438 182.907 116.396 181.211C120.885 180.362 124.908 176.462 128.466 169.511C131.86 162.805 133.816 155.375 134.336 147.219C134.856 138.379 133.433 131.222 130.067 125.748C126.126 119.399 120.009 116.347 111.716 116.593L132.325 113.473L145.626 132.85Z" fill="#D7A400"/>
<path d="M149.896 152.227C150.142 156.962 149.581 162.052 148.213 167.499C148.431 162.6 147.159 157.55 144.395 152.35C141.576 147.068 137.922 142.936 133.433 139.952C127.248 135.792 119.708 133.918 110.813 134.328C101.617 134.739 94.8574 137.503 90.5332 142.621C91.4637 140.185 92.6406 137.626 94.0638 134.944L95.8701 131.619C98.1143 128.69 101.604 126.432 106.339 124.845C111.265 123.23 116.369 122.765 121.651 123.449C127.59 124.215 132.845 126.364 137.416 129.894C142.643 133.972 146.543 139.61 149.116 146.808L149.896 152.227Z" fill="#152139"/>
<path d="M100.057 146.767C105.887 145.043 111.949 145.016 118.244 146.685C124.894 148.437 130.382 151.762 134.706 156.661C139.577 162.162 142.314 168.991 142.916 177.146L138.647 182.894C135.281 187.081 132.325 190.051 129.78 191.802C132.927 185.015 132.653 178.871 128.958 173.37C125.702 168.553 120.679 165.186 113.892 163.271C107.214 161.382 101.316 161.56 96.1983 163.804C90.4782 166.322 87.5361 170.865 87.3719 177.434C85.8392 174.834 85.2645 170.564 85.6477 164.625L86.674 156.497C89.5477 151.817 94.0088 148.574 100.057 146.767Z" fill="#152139"/>
<path d="M149.116 146.808L149.814 152.227C150.005 156.962 149.417 162.053 148.048 167.499C148.267 162.545 147.104 157.605 144.559 152.679C141.986 147.588 138.469 143.552 134.008 140.568L133.598 136.627C133.105 133.234 132.175 129.689 130.806 125.995C134.829 127.774 138.333 130.291 141.316 133.548C144.655 137.161 147.255 141.581 149.116 146.808Z" fill="#0B132A"/>
<path d="M130.026 191.269C133.365 184.125 132.476 177.543 127.358 171.522C130.532 166.76 132.489 161.286 133.228 155.101C139.03 160.821 142.26 168.17 142.917 177.146L138.647 183.058C135.308 187.245 132.435 189.982 130.026 191.269Z" fill="#0B132A"/>
<path d="M119.886 189.955C119.01 192.527 114.7 199.246 106.954 210.112C99.0996 221.169 94.7617 226.341 93.9407 225.63C93.1196 224.946 93.2564 218.117 94.3512 205.144C95.4186 192.473 96.3902 184.851 97.2659 182.278C98.0596 179.924 99.8386 178.296 102.603 177.393C105.367 176.489 108.309 176.572 111.429 177.639C114.577 178.706 116.971 180.444 118.613 182.853C120.256 185.234 120.68 187.601 119.886 189.955Z" fill="#F9BE00"/>
<path d="M116.068 180.513C117.847 181.635 119.078 183.031 119.762 184.7C120.447 186.37 120.488 188.121 119.886 189.955C119.01 192.473 115.78 197.851 110.197 206.089C103.957 215.257 98.8939 221.511 95.0076 224.85C98.6476 219.157 102.329 212.575 106.051 205.104C110.868 195.497 114.207 187.3 116.068 180.513Z" fill="#D7A400"/>
<path d="M113.03 77.8804L115.288 77.9625C117.177 78.1814 119.01 78.6056 120.789 79.2351C126.482 81.3151 130.615 85.2562 133.187 91.0584C136.444 98.311 136.567 104.838 133.557 110.641C130.382 116.716 124.703 119.809 116.52 119.919C108.966 120.001 103.314 116.333 99.565 108.916C98.1144 106.015 97.266 103.059 97.0197 100.049C96.7734 97.1479 97.1429 94.9858 98.1281 93.5626L113.03 77.8804Z" fill="#F9BE00"/>
<path d="M113.03 77.8804L115.288 77.9625C117.176 78.1814 119.01 78.6056 120.789 79.2351C126.482 81.3151 130.614 85.2562 133.187 91.0584C135.924 97.1342 136.389 102.827 134.583 108.136C132.749 113.61 128.959 117.209 123.211 118.933C125.62 116.005 126.906 112.543 127.07 108.547C127.234 104.743 126.359 101.144 124.443 97.75C122.445 94.2468 119.681 91.6331 116.15 89.9089C112.236 88.0204 107.871 87.5141 103.054 88.3899L113.03 77.8804Z" fill="#D7A400"/>
<path d="M164.962 145.864L152.113 138.351C147.132 135.532 142.178 130.935 137.251 124.558C133.174 119.33 130.081 114.308 127.973 109.491C127.672 108.725 127.837 108.109 128.466 107.644C129.123 107.179 129.711 107.288 130.231 107.972C133.871 112.899 138.1 117.373 142.917 121.397C146.338 124.27 151.921 127.596 159.666 131.372L173.009 137.859C174.35 138.707 174.993 139.583 174.938 140.486C174.829 141.827 175.349 143.264 176.498 144.797C177.401 146.028 178.551 147.383 179.946 148.861C181.233 150.229 182.984 152.446 185.201 155.512C187.856 159.152 190.169 165.953 192.139 175.915C193.617 183.386 194.63 190.927 195.177 198.535C195.533 203.762 195.273 207.772 194.397 210.564C193.549 213.191 193.22 215.326 193.412 216.968C194.233 224.111 198.776 230.091 207.041 234.908C209.505 236.331 212.542 237.768 216.155 239.218C219.604 240.614 221.478 241.408 221.779 241.6C223.23 242.53 224.174 245.322 224.612 249.974C224.831 252.301 224.899 254.531 224.817 256.666C224.024 255.599 223.038 254.504 221.861 253.382C219.563 251.137 217.551 249.906 215.827 249.687C214.458 249.523 211.489 247.538 206.918 243.734C202.047 239.656 197.791 237.125 194.151 236.139C191.961 235.51 189.498 235.223 186.761 235.277L181.958 234.867C180.863 234.429 180.699 233.362 181.465 231.665C181.849 230.816 182.93 229.065 184.709 226.41C186.022 224.439 186.789 222.455 187.008 220.457C187.227 218.268 186.789 215.859 185.694 213.232L180.973 202.599C178.92 197.81 177.839 194.389 177.73 192.336C177.675 191.323 177.962 188.135 178.592 182.771C179.084 178.282 179.043 175.08 178.469 173.164C177.62 170.263 177.086 167.896 176.867 166.062C176.594 163.654 176.799 161.711 177.483 160.233C178.14 158.809 178.058 156.853 177.237 154.362C176.662 152.638 175.827 150.859 174.733 149.025C174.131 148.013 173.405 147.588 172.557 147.753L170.504 148.533C170.012 148.642 168.164 147.753 164.962 145.864Z" fill="#6791B9"/>
<path d="M144.805 122.916C141.74 121.492 138.962 121.698 136.471 123.531C132.777 118.66 129.944 113.98 127.973 109.491C127.672 108.725 127.837 108.109 128.466 107.644C129.123 107.179 129.711 107.288 130.231 107.972C133.871 112.899 138.1 117.373 142.917 121.397L144.805 122.916Z" fill="#567C9D"/>
<path d="M173.665 143.483C174.076 142.854 172.735 141.13 169.642 138.311C166.796 135.683 164.469 133.849 162.663 132.809L168.985 135.765C170.983 136.696 172.324 137.394 173.008 137.859C174.349 138.707 174.993 139.583 174.938 140.486C174.828 141.827 175.348 143.264 176.498 144.797C177.401 146.028 178.551 147.383 179.946 148.861C181.233 150.23 182.984 152.446 185.201 155.512C187.856 159.152 190.169 165.953 192.139 175.915C193.617 183.387 194.63 190.927 195.177 198.535C195.533 203.763 195.273 207.772 194.397 210.564C193.549 213.191 193.22 215.326 193.412 216.968C194.233 224.111 198.776 230.091 207.041 234.908C209.504 236.331 212.542 237.768 216.155 239.219C219.603 240.614 221.478 241.408 221.779 241.6C223.23 242.53 224.188 245.322 224.653 249.974C224.872 252.301 224.954 254.531 224.899 256.666C224.078 255.599 223.079 254.504 221.902 253.382C219.576 251.138 217.551 249.906 215.827 249.687C215.142 249.605 214.663 249.304 214.39 248.784L213.774 246.895C213.144 244.733 211.639 242.941 209.258 241.518C207.288 240.368 204.605 238.425 201.212 235.688C198.612 233.608 196.764 232.445 195.67 232.199C194.028 231.843 192.645 230.365 191.523 227.765C190.319 224.973 189.922 221.935 190.333 218.651C190.716 215.695 190.743 211.932 190.415 207.362L189.471 198.166C189.005 194.307 188.321 189.859 187.418 184.823C186.487 179.788 185.762 175.121 185.242 170.824C184.996 168.252 184.394 165.077 183.436 161.3C182.314 157.003 181.137 153.733 179.905 151.489C179.084 149.983 177.497 148.355 175.143 146.603C173.556 145.399 173.063 144.359 173.665 143.483Z" fill="#567C9D"/>
<path d="M168.287 93.809C167.959 94.4932 167.576 96.8879 167.138 100.993C166.755 104.797 166.55 107.712 166.522 109.737C166.522 110.86 165.811 112.255 164.387 113.925L161.308 116.922L160.241 119.303C159.885 120.097 159.16 119.891 158.065 118.687C155.657 116.032 151.346 113.706 145.134 111.708L138.812 110.025C137.169 109.505 135.883 108.574 134.953 107.233C133.228 104.77 131.271 102.211 129.082 99.5564C126.044 95.8616 123.595 93.3574 121.733 92.0437C121.049 91.5511 120.735 91.0584 120.789 90.5658C120.844 90.0732 121.241 89.7721 121.98 89.6626C123.978 89.3068 126.81 90.3468 130.478 92.7826C134.693 95.6016 143.067 101.992 155.602 111.954C155.52 111.215 155.506 110.381 155.561 109.45C155.698 107.589 156.122 106.193 156.834 105.263C157.491 104.414 158.681 102.006 160.405 98.0374C162.184 93.9048 163.238 91.5784 163.566 91.0584L166.686 91.1405C168.137 92.0984 168.671 92.9879 168.287 93.809Z" fill="#6791B9"/>
<path d="M140.536 100.213C137.881 99.3648 135.91 99.2279 134.624 99.8027C133.283 100.432 132.667 101.924 132.777 104.277C128.206 98.0648 124.525 93.9869 121.733 92.0437C121.049 91.5511 120.735 91.0584 120.789 90.5658C120.844 90.0732 121.241 89.7721 121.98 89.6626C123.978 89.3068 126.81 90.3468 130.478 92.7826L140.536 100.213Z" fill="#567C9D"/>
<path d="M168.287 93.8093C167.959 94.4935 167.576 96.8883 167.138 100.994C166.755 104.798 166.55 107.713 166.522 109.738C166.522 110.532 166.139 111.503 165.373 112.653C165.838 110.08 165.468 107.576 164.264 105.14C163.06 102.759 161.418 101.199 159.338 100.46L161.76 94.8767L163.566 91.0588L166.686 91.1409C168.137 92.0988 168.671 92.9883 168.287 93.8093Z" fill="#567C9D"/>
<path d="M197.722 8.29577C197.64 16.7527 196.203 31.518 193.412 52.5919C190.812 71.9688 189.074 82.971 188.198 85.5984C187.24 88.4447 184.161 90.7711 178.961 92.5774C173.98 94.329 169.93 94.7395 166.81 93.809C161.774 92.3311 158.052 89.7858 155.643 86.1731C153.235 82.6152 152.468 78.5236 153.344 73.8983C154.056 70.2036 160.077 58.914 171.407 40.0297C182.273 21.9117 189.279 11.0463 192.427 7.43366C195.246 4.20417 196.833 2.6031 197.189 2.63047C197.572 2.65784 197.75 4.54627 197.722 8.29577Z" fill="#DBDCDC"/>
<path d="M197.106 2.22007C197.407 1.97375 197.613 3.01376 197.722 5.34009C197.804 7.50221 197.777 9.55485 197.64 11.498C196.217 29.1234 195.122 41.5351 194.356 48.733C192.413 66.8236 190.36 79.1122 188.198 85.5985C187.213 88.4996 184.106 90.8943 178.879 92.7828C173.788 94.6165 169.765 94.9586 166.809 93.8091L164.059 92.5775C166.029 93.0701 167.671 93.0701 168.985 92.5775C170.272 92.1122 171.353 91.1543 172.228 89.7038L184.503 49.0204C191.783 24.5528 195.984 8.95274 197.106 2.22007Z" fill="#B4B4B5"/>
<path d="M81.1319 53.2487L91.9699 52.715C95.2267 52.9613 97.6625 53.4677 99.2773 54.234L109.746 58.9551L105.846 87.0763C103.3 90.1416 100.003 93.4258 95.952 96.929C90.9709 101.253 87.5498 103.361 85.6888 103.251C84.5119 103.196 82.5277 102.088 79.7361 99.9259C76.6434 97.5448 73.7834 94.7532 71.156 91.5511C63.9034 82.7384 61.3581 74.6099 63.5202 67.1657C65.6823 59.694 71.5529 55.055 81.1319 53.2487Z" fill="#F9BE00"/>
<path d="M97.9227 69.2185C96.5816 62.1574 93.4479 56.6016 88.5216 52.551L94.9669 53.0437C96.8553 53.3721 98.2922 53.7689 99.2774 54.2342L109.746 58.9553L105.846 87.0765C103.301 90.1418 100.003 93.426 95.9521 96.9292C90.9711 101.253 87.55 103.361 85.6889 103.251L85.1963 103.169L91.149 96.1082C93.4206 93.3166 95.1174 90.7986 96.2395 88.5544C98.648 82.3417 99.209 75.8964 97.9227 69.2185Z" fill="#D7A400"/>
<path d="M63.2738 68.151C64.3685 68.3426 66.1338 72.1058 68.5696 79.4405C70.8412 86.3101 72.0591 90.8396 72.2233 93.0291C72.3601 94.808 71.0601 94.9312 68.3233 93.3985C65.5864 91.8659 63.4927 89.7585 62.0422 87.0764C59.6064 82.6153 58.6485 78.209 59.1685 73.8574C59.6611 69.6973 61.0295 67.7952 63.2738 68.151Z" fill="#E85377"/>
<path d="M104.08 62.691H109.541C113.098 65.9205 114.549 70.0805 113.892 75.1711C113.345 79.4679 111.894 82.6016 109.541 84.5722C105.818 87.7743 102.726 89.608 100.263 90.0733C97.3615 90.6206 95.5689 89.2112 94.8846 85.8448C93.872 81.0006 94.3373 76.1427 96.2804 71.271C98.2236 66.4268 100.824 63.5668 104.08 62.691Z" fill="#E85377"/>
<path d="M74.4817 61.2129C75.2206 63.2108 75.1796 64.4971 74.3585 65.0719C73.5375 65.6466 72.7438 64.935 71.9775 62.9371C71.2659 61.0487 68.748 57.2992 64.4237 51.6886C60.209 46.2149 57.4995 43.0812 56.2953 42.2875C55.3374 41.658 52.5047 43.957 47.7973 49.1844C44.3762 52.9886 41.1604 56.916 38.1499 60.9666C36.9183 62.6361 35.4814 64.7845 33.8393 67.4119C32.4983 69.3277 31.1161 70.4908 29.693 70.9014C27.9961 71.394 26.5182 70.3951 25.2593 67.9045C24.0003 65.4413 23.8224 63.375 24.7256 61.7055C25.6014 60.0908 29.3782 55.616 36.0562 48.2812C42.7615 40.9738 47.1131 36.5675 49.111 35.0622C51.0542 33.5843 52.7373 32.9411 54.1605 33.1327C55.5289 33.3243 56.9111 34.2959 58.3069 36.0475C60.25 38.538 63.0553 42.5475 66.7227 48.076C71.0743 54.6718 73.6606 59.0508 74.4817 61.2129Z" fill="#6791B9"/>
<path d="M74.4816 61.213C75.2205 63.2109 75.1795 64.4973 74.3584 65.072C73.5374 65.6467 72.7437 64.9352 71.9774 62.9372C71.2658 61.0488 68.7479 57.2993 64.4236 51.6887C60.2089 46.215 57.4994 43.0813 56.2952 42.2876C55.3373 41.6582 52.5046 43.9571 47.7972 49.1845C44.3761 52.9888 41.1603 56.9161 38.1498 60.9667C36.9182 62.6362 35.4813 64.7846 33.8392 67.412C32.4982 69.3278 31.116 70.491 29.6929 70.9015C30.0213 70.5457 30.3634 69.9436 30.7192 69.0952C31.4308 67.3436 31.636 65.3731 31.335 63.1836C31.0613 60.8846 34.2087 55.8761 40.7772 48.1582C46.4425 41.5076 50.4109 37.3339 52.6825 35.6371C53.832 34.7613 55.0499 34.5013 56.3362 34.8571C57.2394 35.1307 57.8962 35.5276 58.3067 36.0476C60.2499 38.5381 63.0552 42.5476 66.7226 48.0761C71.0742 54.6719 73.6605 59.0509 74.4816 61.213Z" fill="#567C9D"/>
<path d="M91.3953 27.0982C91.8332 24.5529 92.5995 23.4581 93.6942 23.8139C94.5427 24.0876 95.4321 25.1002 96.3627 26.8518C103.041 39.1951 107.857 47.7478 110.813 52.5099C112.455 55.1373 112.524 57.9152 111.019 60.8436C109.814 63.17 108.336 64.7026 106.585 65.4416C105.545 65.8521 103.287 62.4447 99.8111 55.2194L94.8848 44.2583L93.0374 51.8941L90.1226 62.8142C89.7121 64.0458 89.0963 64.5384 88.2753 64.2921C87.4542 64.0184 87.1668 63.3205 87.4131 62.1984L89.3426 45.2025C90.4647 34.5561 91.149 28.5213 91.3953 27.0982Z" fill="#6791B9"/>
<path d="M110.813 52.5099C112.455 55.1373 112.524 57.9152 111.019 60.8437C109.814 63.17 108.337 64.7026 106.585 65.4416C106.339 65.5237 105.394 64.47 103.752 62.2805C102.028 59.9542 101.015 58.1889 100.714 56.9847C104.3 60.351 106.462 59.9405 107.201 55.7531C107.885 51.8941 107.269 47.7067 105.353 43.1909L110.813 52.5099Z" fill="#567C9D"/>
<path d="M103.793 81.8626L109.335 81.6573C110.841 81.9858 111.238 82.6563 110.526 83.6689C109.349 85.3658 107.515 86.8848 105.025 88.2258C102.699 89.4574 100.714 90.0732 99.0722 90.0732C97.0743 90.0732 95.8838 89.129 95.5006 87.2405C95.2816 86.009 96.0753 84.8868 97.8817 83.8742C99.4417 82.971 101.412 82.3005 103.793 81.8626Z" fill="#ED8599"/>
<path d="M64.752 90.7712C64.2594 90.1144 64.232 89.4849 64.6699 88.8828C65.0805 88.3628 65.7647 87.9796 66.7226 87.7333C69.1037 87.1586 70.5952 87.6649 71.1974 89.2523C71.7995 90.8123 72.1142 91.9891 72.1416 92.7828C72.1689 93.4944 71.95 94.0144 71.4847 94.3428C71.0195 94.6713 70.0616 94.5071 68.611 93.8502C67.0236 93.1113 65.7373 92.0849 64.752 90.7712Z" fill="#ED8599"/>
<path d="M53.8728 112.735C52.6413 111.393 51.5465 109.984 50.5886 108.506L49.5212 106.659L50.6297 106.002L51.656 107.644C52.5318 108.93 53.5444 110.162 54.6939 111.339C58.3887 115.116 62.7403 117.688 67.7487 119.057L71.1972 119.755L73.4961 122.218C71.4709 122.136 69.5277 121.835 67.6666 121.315C62.4119 119.864 57.8139 117.004 53.8728 112.735Z" fill="#0D131A"/>
<path d="M92.1345 117.661C92.8187 116.676 93.2156 115.909 93.3251 115.362C95.6788 114.212 98.0598 112.858 100.468 111.298L101.248 112.488C98.1283 114.513 95.0903 116.238 92.1345 117.661Z" fill="#0D131A"/>
<path d="M69.1855 119.713L70.4992 120.288C69.6782 122.177 69.1582 125.269 68.9392 129.566C68.7203 134.356 68.9803 139.09 69.7192 143.77L67.995 144.92C67.2561 139.966 67.0645 134.876 67.4203 129.648C67.7213 125.023 68.3098 121.711 69.1855 119.713Z" fill="#0D131A"/>
<path d="M72.2646 158.837C71.3615 157.195 70.5678 155.32 69.8835 153.213C70.6225 152.884 71.293 152.665 71.8951 152.556C72.5246 154.417 73.2773 156.141 74.1531 157.729C77.191 163.366 81.3236 166.623 86.551 167.499L86.3047 168.895C80.0099 167.828 75.3299 164.475 72.2646 158.837Z" fill="#0D131A"/>
<path d="M70.6226 94.0964L71.3205 94.0143C71.512 95.1912 72.2099 97.6817 73.4142 101.486C74.8921 106.084 76.2879 109.71 77.6016 112.365L75.9184 111.257C74.6594 108.739 73.4552 105.386 72.3057 101.199C71.4299 98.1059 70.8689 95.7386 70.6226 94.0964Z" fill="#0D131A"/>
<path d="M84.2933 52.8794L83.0207 53.4952C80.4754 48.4594 75.768 42.1919 68.8985 34.693C59.6753 24.676 51.5194 19.0792 44.4309 17.9023C39.8604 17.1634 35.933 18.436 32.6488 21.7202C29.0635 25.2782 27.2571 30.9024 27.2298 38.593C27.2298 43.0814 27.8045 47.8025 28.954 52.7562C29.0361 53.0847 28.7761 53.1257 28.174 52.8794C27.5445 52.6057 27.1887 52.3183 27.1066 52.0173C25.9024 46.9541 25.3003 42.1372 25.3003 37.5667C25.3003 29.575 27.2435 23.636 31.1298 19.7497C34.414 16.4655 38.7656 15.2612 44.1846 16.137C51.6289 17.3413 60.1132 23.1023 69.6374 33.4203C76.7806 41.1109 81.6659 47.5972 84.2933 52.8794Z" fill="#0D131A"/>
<path d="M49.3572 34.8572L48.6593 35.432L31.9097 21.474L32.3613 20.9403L49.3572 34.8572Z" fill="#0D131A"/>
<path d="M25.957 37.074L26.5318 36.6635L38.1908 46.4751L37.575 47.0909L25.957 37.074Z" fill="#0D131A"/>
<path d="M45.1287 52.1815L45.7034 51.4836L64.3004 65.3184L63.8898 65.8932L45.1287 52.1815Z" fill="#0D131A"/>
<path d="M71.9362 37.5256L72.2647 38.0183L60.2772 38.7572L60.1541 37.9362L71.9362 37.5256Z" fill="#0D131A"/>
<path d="M47.3867 53.3719L48.372 54.1109L50.7531 68.4384L49.932 68.0689L47.3867 53.3719Z" fill="#0D131A"/>
<path d="M95.2952 119.796L97.1426 113.638L97.8405 113.843L95.911 120.247L95.8289 120.288C79.9004 132.522 70.8277 139.118 68.6108 140.076L68.734 138.762C70.8687 137.859 79.7225 131.537 95.2952 119.796Z" fill="#0D131A"/>
<path d="M81.7476 130.552L82.2812 129.977L84.6213 135.765L83.9644 136.668L81.7476 130.552Z" fill="#0D131A"/>
<path d="M76.4111 161.587C77.4785 159.316 78.9017 156.552 80.6806 153.295C83.3354 148.478 85.0733 145.864 85.8943 145.454L87.167 144.551C86.4554 145.18 84.9912 147.534 82.7743 151.612C80.968 154.951 79.0385 158.686 76.9859 162.819L76.4111 161.587Z" fill="#0D131A"/>
<path d="M157.08 157.77C155.027 156.182 153.098 154.458 151.292 152.597L149.116 150.175L149.403 148.574L151.62 150.914C153.454 152.72 155.397 154.39 157.449 155.922C163.963 160.767 170.354 163.353 176.621 163.681L176.498 164.708L176.58 165.734C170.066 165.46 163.566 162.806 157.08 157.77Z" fill="#0D131A"/>
<path d="M198.092 95.6154L199.282 94.7944C202.293 99.1733 204.879 105.03 207.041 112.365C209.888 122.053 210.558 130.729 209.053 138.393C208.122 143.1 206.234 147.356 203.388 151.16C200.815 154.554 197.353 157.742 193.001 160.725C191.469 161.738 190.059 162.545 188.773 163.147L188.075 161.464C189.307 160.917 190.483 160.26 191.606 159.494C199.679 154.294 204.674 146.918 206.59 137.366C208.095 129.812 207.616 121.465 205.153 112.324C203.237 105.235 200.883 99.666 198.092 95.6154Z" fill="#0D131A"/>
<path d="M161.801 116.06L162.253 115.444C166.988 117.469 174.856 119.59 185.858 121.807C196.286 123.887 203.593 124.927 207.781 124.927V125.625C203.018 125.625 195.875 124.735 186.351 122.956C175.431 120.904 167.248 118.605 161.801 116.06Z" fill="#0D131A"/>
<path d="M186.966 122.341H187.705C187.842 124.804 187.281 128.293 186.022 132.809C184.654 137.681 183.066 141.376 181.26 143.894L180.685 143.483C182.327 141.211 183.846 137.298 185.242 131.742C186.392 127.171 186.966 124.038 186.966 122.341Z" fill="#0D131A"/>
<path d="M174.691 140.568C176.498 141.17 178.509 142.046 180.726 143.196L184.914 145.413C185.817 145.823 186.323 146.138 186.433 146.357L187.048 148.451L190.784 160.89L190.086 161.095L185.529 146.973C180.849 144.072 177.155 142.156 174.445 141.225L174.691 140.568Z" fill="#0D131A"/>
<path d="M144.066 103.046C147.98 103.812 152.592 104.099 157.901 103.908L156.875 105.468L145.791 104.77L144.066 103.046Z" fill="#0D131A"/>
<path d="M193.781 5.70963C194.028 5.60015 193.863 5.95594 193.289 6.777L192.057 8.13175L189.922 8.99386C183.518 11.676 176.772 15.9729 169.683 21.8845C162.951 27.495 156.587 33.9677 150.594 41.3025C144.573 48.6646 139.66 55.9994 135.856 63.3068C131.832 70.9974 129.465 77.8396 128.753 83.8333L127.358 83.6691C128.042 77.7027 130.341 70.7101 134.255 62.6911C138.278 54.4257 143.3 46.5709 149.321 39.1267C155.424 31.6003 162.047 25.0455 169.191 19.4623C175.869 14.2623 182.56 10.2528 189.265 7.43385L193.781 5.70963Z" fill="#0D131A"/>
<path d="M223.298 35.5961C222.477 20.6255 219.056 11.2518 213.035 7.4749C209.176 5.09383 204.099 4.69698 197.804 6.28436C197.695 6.31173 197.613 6.03805 197.558 5.4633C197.531 4.8612 197.572 4.54646 197.681 4.51909C204.742 2.71276 210.271 3.05487 214.267 5.54541C217.578 7.62542 220.137 10.9918 221.943 15.6444C223.75 20.3792 224.872 26.6603 225.31 34.4877C225.748 42.4246 224.79 50.4573 222.436 58.5858C220.657 64.6616 218.208 70.4364 215.088 75.9101C212.05 81.247 208.902 85.8038 205.645 89.5807C202.005 93.7955 198.53 96.6692 195.218 98.2018C191.961 99.7071 187.87 101.048 182.943 102.225C177.88 103.457 172.639 104.346 167.22 104.893V103.128C172.311 102.444 177.333 101.445 182.286 100.131C186.939 98.845 190.88 97.4629 194.11 95.985C201.499 92.5639 208.177 85.4344 214.143 74.5964C220.986 62.1984 224.037 49.1983 223.298 35.5961Z" fill="#0D131A"/>
<path d="M175.759 34.2414L175.8 34.9393L153.755 35.9246L154.74 35.1856L175.759 34.2414Z" fill="#0D131A"/>
<path d="M214.226 12.7707L217.592 10.8823L217.961 11.4981L214.554 13.3865C205.659 18.2855 199.802 21.6655 196.983 23.5266C196.655 23.7455 196.504 23.636 196.532 23.1981C196.586 22.7876 196.723 22.5002 196.942 22.336C198.694 21.1044 201.54 19.4486 205.481 17.3686L214.226 12.7707Z" fill="#0D131A"/>
<path d="M209.956 42.2465C215.512 38.8802 220.151 36.5265 223.873 35.1854L224.119 35.8833C220.698 37.0875 215.991 39.5781 209.997 43.355C203.456 47.4329 198.105 51.3876 193.945 55.2192C193.617 55.4929 193.439 55.4656 193.412 55.1371C193.357 54.8087 193.507 54.4803 193.863 54.1519C198.023 50.1834 203.387 46.215 209.956 42.2465Z" fill="#0D131A"/>
<path d="M206.138 67.6172C212.461 64.3604 217.113 62.4583 220.096 61.9109L220.261 62.6088C217.879 63.1562 213.432 65.0446 206.918 68.2741C199.556 71.9688 194.096 75.2941 190.538 78.2499L190.087 78.2089C190.087 77.9352 190.224 77.6889 190.497 77.4699C194.11 74.3499 199.324 71.0657 206.138 67.6172Z" fill="#0D131A"/>
<path d="M203.1 47.0087L203.839 46.9677L205.892 68.3152L204.66 68.931L203.1 47.0087Z" fill="#0D131A"/>
<path d="M157.409 63.7173C157.655 63.5804 157.805 63.6489 157.86 63.9226C157.888 64.1962 157.751 64.4152 157.45 64.5794C153.344 67.0152 148.651 70.19 143.369 74.1037C138.059 77.99 133.516 81.6027 129.739 84.9416L129.246 84.449C139.646 75.1437 149.034 68.2331 157.409 63.7173Z" fill="#0D131A"/>
<path d="M144.025 103.087L156.382 87.7745L157.449 88.6366L144.559 103.539L144.025 103.087Z" fill="#0D131A"/>
<path d="M181.424 101.281L184.052 90.812L185.53 89.1288L182.081 101.445L181.424 101.281Z" fill="#0D131A"/>
<path d="M67.0918 149.682C66.6813 150.366 65.4908 151.242 63.5202 152.309C61.1939 153.596 59.8392 154.677 59.456 155.552C59.2097 156.1 58.8539 157.81 58.3886 160.684C57.6497 164.981 56.9928 168.238 56.4181 170.455C55.3507 174.615 54.0233 178.049 52.436 180.759C50.6844 183.769 49.3159 186.972 48.3307 190.365C47.4275 193.513 46.9759 196.373 46.9759 198.945C46.9759 200.834 47.2359 202.366 47.7559 203.543L49.9728 208.634C50.6844 210.55 51.0402 212.192 51.0402 213.56C51.0402 214.6 50.8486 215.503 50.4654 216.27C49.6991 217.967 48.4812 220.06 46.8117 222.551C45.0875 225.096 43.8012 226.697 42.9527 227.354L34.5779 232.855C29.7063 236.304 26.8053 239.095 25.8747 241.23C25.1631 242.845 25.04 245.144 25.5053 248.127C25.9705 251.11 26.4905 252.095 27.0653 251.083C28.4337 248.729 31.1295 245.431 35.1527 241.189C39.7232 236.372 43.4317 233.225 46.278 231.747C48.6591 230.515 51.3549 229.366 54.3654 228.298L60.0718 226.451L62.4939 225.753C62.8771 225.616 63.0413 225.342 62.9866 224.932C62.9044 224.494 62.4939 223.591 61.755 222.222C61.016 220.881 60.5097 220.074 60.236 219.8C59.0318 218.487 58.156 217.296 57.6086 216.229C56.6507 214.368 56.1718 212.164 56.1718 209.619C56.1718 208.169 56.3223 206.677 56.6234 205.144C57.0339 202.873 57.7044 200.697 58.6349 198.617C59.2097 197.331 60.1265 195.634 61.3855 193.526C62.9181 190.926 63.9855 188.86 64.5876 187.327C65.5729 184.809 66.1476 181.991 66.3118 178.87L66.3529 177.146L66.1066 171.399L65.9013 167.581L66.0655 165.775L66.3118 164.995C66.8866 163.161 67.174 161.628 67.174 160.397L67.0508 158.878L66.8866 157.195C66.8866 154.43 68.2824 152.72 71.074 152.063C72.5519 151.762 75.0014 150.681 78.4224 148.82C83.513 146.028 88.0151 142.621 91.9288 138.598L91.6415 140.979C86.9888 145.741 82.4456 149.176 78.0119 151.283C76.3972 152.077 74.194 152.802 71.4024 153.459C70.1982 153.732 69.3771 154.444 68.9392 155.594C68.5287 156.634 68.4603 157.947 68.734 159.535C68.9255 160.684 68.8708 161.792 68.5698 162.86L67.6666 165.405L67.4203 166.144C67.3108 166.582 67.3382 168.293 67.5024 171.276C67.7213 174.615 67.7761 177.447 67.6666 179.774C67.475 183.359 67.1603 186.041 66.7224 187.82C66.2845 189.462 65.4634 191.282 64.2592 193.28L60.7286 198.74C59.2781 201.149 58.3749 203.365 58.0192 205.391C57.3623 209.031 57.4855 212.055 58.3886 214.463C58.9086 215.859 59.8665 217.31 61.2623 218.815C63.315 221.032 64.4918 222.961 64.7929 224.603C65.0666 226.109 64.6013 226.985 63.3971 227.231C57.2939 228.572 51.8065 230.501 46.9349 233.019C44.3075 234.36 40.2843 238.247 34.8653 244.678C29.8021 250.617 27.0105 253.587 26.4905 253.587C25.3958 253.587 24.5063 252.136 23.8221 249.235C23.1926 246.526 23.0284 243.953 23.3294 241.517C23.7673 238.014 29.9527 232.965 41.8854 226.369C45.7443 221.442 48.1801 217.884 49.1928 215.695C49.4665 215.065 49.6033 214.354 49.6033 213.56C49.6033 212.383 49.1928 210.905 48.3717 209.126L45.9907 204.405C45.4159 203.146 45.1285 201.422 45.1285 199.233C45.1285 196.633 45.6622 193.622 46.7296 190.201C47.8244 186.671 49.3159 183.277 51.2044 180.02C52.7096 177.475 53.8728 174.136 54.6939 170.003L56.2128 160.438C56.7328 157.345 57.1297 155.525 57.4034 154.978C57.7318 154.239 58.5118 153.486 59.7434 152.72L62.8634 151.078C64.5876 150.147 65.6003 149.422 65.9013 148.902L66.4761 147.547C66.9961 146.042 67.4066 145.098 67.7076 144.714C68.5834 143.565 70.1434 142.58 72.3877 141.759C75.9456 140.5 80.7214 137.585 86.7151 133.014C94.4331 127.103 100.016 121.095 103.465 114.992L104.696 115.69C101.275 121.739 95.8562 127.76 88.4394 133.753C82.2814 138.734 77.2866 141.896 73.455 143.237C71.4298 143.976 69.9929 144.783 69.1445 145.659C68.6245 146.179 68.1866 146.959 67.8308 147.999L67.0918 149.682Z" fill="#0D131A"/>
<path d="M66.2297 106.289C64.6423 104.784 63.1234 103.005 61.6729 100.952L62.7813 100.09C66.5034 105.208 69.9792 108.273 73.2087 109.286C75.7266 110.107 77.5193 111.311 78.5866 112.899C79.3803 114.048 79.9414 115.8 80.2698 118.153C81.8298 114.377 84.7309 109.888 88.973 104.688C91.3815 101.76 93.6804 99.2007 95.8699 97.0112L96.8552 98.0375C94.7204 100.254 92.2025 103.21 89.3015 106.905C84.7309 112.707 81.9804 117.182 81.0498 120.329C80.6667 121.643 80.2698 122.149 79.8593 121.848L79.2435 121.191L79.0793 119.837C79.0793 118.468 78.6824 116.977 77.8887 115.362C76.7393 112.953 75.0287 111.38 72.7571 110.641C70.6771 109.984 68.5013 108.533 66.2297 106.289Z" fill="#0D131A"/>
<path d="M66.4765 116.512C62.5354 111.832 59.5248 107.781 57.4448 104.36L56.9111 103.375L58.1838 102.8L58.6764 103.621C60.5922 106.741 63.5343 110.6 67.5028 115.198C71.9091 120.234 75.166 123.258 77.2734 124.271L81.0092 125.872L83.4724 126.036C84.1018 125.79 84.6082 125.16 84.9913 124.147L85.1555 123.901C87.2629 121.657 89.3156 119.125 91.3135 116.306C94.8987 111.243 96.8556 107.097 97.184 103.867L98.0051 105.14C97.4577 110.395 93.544 116.949 86.264 124.804L85.4839 126.529C85.2103 127.021 84.8682 127.35 84.4576 127.514C82.706 128.198 80.0513 127.705 76.4934 126.036C74.2765 124.996 70.9375 121.821 66.4765 116.512Z" fill="#0D131A"/>
<path d="M58.8405 75.2121L38.7656 61.0078L39.5867 59.7762L59.0047 73.6111L58.8405 75.2121Z" fill="#0D131A"/>
<path d="M0.832493 36.7456C0.859862 35.9519 1.09249 35.3908 1.53039 35.0624C2.62514 34.214 4.19883 34.5287 6.25148 36.0066L31.1295 53.7415L29.9801 54.7678L5.79989 37.6487C4.95147 37.0466 4.2262 36.6635 3.62409 36.4993C3.18619 36.3624 2.87145 36.3624 2.67987 36.4993C2.35145 36.7182 2.36513 37.4161 2.72093 38.593C3.18619 39.9888 8.89255 51.2099 19.84 72.2563C30.7601 93.3575 36.6306 104.456 37.4517 105.55C38.0538 106.371 39.3949 106.85 41.4749 106.987C43.5549 107.151 45.7033 106.919 47.9202 106.289C53.996 104.811 58.8266 102.143 62.4119 98.2839C64.3277 96.2039 65.6413 94.1375 66.3529 92.0849L67.6666 92.5365C66.654 95.6291 65.4635 98.0102 64.095 99.6797C60.7287 103.73 55.5834 106.453 48.6591 107.849C46.3054 108.506 43.9107 108.725 41.4749 108.506C38.9022 108.26 37.1917 107.562 36.3433 106.412C35.2211 104.907 23.5895 82.6017 1.44829 39.4961C1.01039 38.5109 0.805124 37.594 0.832493 36.7456Z" fill="#0D131A"/>
<path d="M36.9593 105.55C40.3257 105.879 44.4036 104.921 49.1931 102.677C55.6521 99.666 60.5237 95.1365 63.8079 89.088L64.3006 90.1143C61.1532 96.4912 56.2405 101.103 49.5626 103.949C44.8004 106.002 40.5583 106.837 36.8362 106.453L36.9593 105.55Z" fill="#0D131A"/>
<path d="M106.626 117.25L107.529 117.414L108.268 117.743C102.411 122.368 97.3481 129.224 93.0786 138.31C88.4533 148.163 86.3186 157.633 86.6744 166.719C87.0575 176.216 90.287 183.646 96.3628 189.011L95.747 191.515C92.4902 188.587 89.9175 185.015 88.0291 180.8C86.1133 176.531 85.0596 171.933 84.868 167.006C84.5122 157.947 86.6744 148.423 91.3544 138.434C95.6239 129.265 100.714 122.204 106.626 117.25Z" fill="#0D131A"/>
<path d="M144.969 133.138L146.611 133.753C151.236 144.92 152.058 155.799 149.074 166.39C146.474 175.723 141.466 183.4 134.049 189.421C128.219 194.211 122.075 196.961 115.616 197.673L116.519 196.564L117.258 195.251C122.705 194.402 127.864 191.994 132.735 188.025C139.878 182.196 144.75 174.615 147.35 165.282C150.279 154.69 149.485 143.976 144.969 133.138Z" fill="#0D131A"/>
<path d="M136.43 128.622C142.369 132.755 146.748 138.762 149.567 146.644L148.705 146.973C145.941 139.282 141.671 133.425 135.897 129.402C131.901 126.583 127.412 124.79 122.431 124.024C117.286 123.23 112.209 123.586 107.201 125.092C102.219 126.569 98.5658 128.841 96.2394 131.906L95.5005 131.332C97.9363 128.102 101.713 125.721 106.831 124.188C111.949 122.628 117.204 122.273 122.595 123.121C127.686 123.887 132.298 125.721 136.43 128.622Z" fill="#0D131A"/>
<path d="M139.181 144.345C144.107 149.463 147.241 155.977 148.582 163.886L147.679 164.051C146.365 156.36 143.314 150.01 138.524 145.002C133.707 139.994 127.59 136.764 120.173 135.313C114.125 134.164 108.2 134.438 102.398 136.135C96.6227 137.777 92.6953 140.308 90.6153 143.729L90.2458 142.826C92.4353 139.268 96.4312 136.682 102.233 135.067C108.063 133.452 114.111 133.233 120.379 134.41C127.987 135.888 134.255 139.2 139.181 144.345Z" fill="#0D131A"/>
<path d="M86.2637 156.251C89.0553 151.68 93.3795 148.451 99.2364 146.562C105.093 144.646 111.238 144.482 117.669 146.07C125.141 147.876 131.148 151.53 135.691 157.031C140.235 162.504 142.794 169.196 143.368 177.106L142.424 177.188C141.877 169.497 139.4 162.97 134.993 157.605C130.56 152.269 124.717 148.724 117.464 146.973C111.224 145.44 105.257 145.591 99.5648 147.424C93.8995 149.231 89.7258 152.337 87.0437 156.743L86.2637 156.251Z" fill="#0D131A"/>
<path d="M96.8144 163.065C101.44 161.286 106.681 161.067 112.538 162.408C118.395 163.749 123.157 166.267 126.824 169.962C129.616 172.754 131.367 175.915 132.079 179.445C132.79 183.003 132.394 186.698 130.888 190.53L130.026 190.16C131.449 186.52 131.832 183.017 131.176 179.651C130.491 176.284 128.822 173.26 126.167 170.578C122.609 167.02 117.998 164.598 112.332 163.312C106.667 161.998 101.618 162.203 97.1838 163.927C94.6933 164.885 92.6817 166.254 91.1491 168.033C89.1238 170.386 88.029 173.356 87.8648 176.941L86.9617 176.9C87.0985 173.616 88.029 170.783 89.7533 168.402C91.4501 166.021 93.8038 164.242 96.8144 163.065Z" fill="#0D131A"/>
<path d="M106.051 176.079C107.912 175.997 109.787 176.285 111.675 176.941C115.398 178.255 118.107 180.308 119.804 183.099C121.473 185.781 121.706 188.354 120.502 190.817C115.904 200.232 110.458 208.785 104.163 216.475C98.6343 223.181 95.1311 226.355 93.6532 226C92.2848 225.671 92.1616 218.774 93.2837 205.309C94.3237 192.637 95.2816 185.029 96.1574 182.483C96.5132 181.471 97.129 180.486 98.0048 179.528C98.8806 178.597 99.8522 177.858 100.92 177.311C102.48 176.545 104.19 176.134 106.051 176.079ZM106.133 177.516C104.436 177.571 102.904 177.927 101.535 178.583C99.729 179.487 98.5248 180.787 97.9227 182.483C97.1838 184.7 96.2396 192.145 95.0901 204.816C93.968 217.625 93.7216 224.125 94.3511 224.316C95.6101 224.563 99.8933 219.458 107.201 209.004C114.289 198.85 118.285 192.432 119.188 189.75C119.407 189.175 119.517 188.505 119.517 187.738C119.517 185.822 118.75 183.989 117.218 182.237C115.685 180.431 113.687 179.117 111.224 178.296C109.554 177.721 107.858 177.461 106.133 177.516Z" fill="#0D131A"/>
<path d="M135.199 90.7712C135.472 91.4554 135.691 92.3859 135.856 93.5628L136.225 96.3544C135.623 95.7523 134.816 95.2186 133.803 94.7533L132.53 91.3459C130.067 85.7901 126.153 81.9995 120.789 79.9743C119.092 79.3174 117.341 78.8932 115.534 78.7016L113.071 78.5785L113.687 77.0595H116.232C118.285 77.1964 120.269 77.5932 122.185 78.25C128.288 80.2753 132.626 84.449 135.199 90.7712Z" fill="#0D131A"/>
<path d="M134.337 106.453L135.609 107.685C135.089 109.19 134.487 110.504 133.803 111.626L132.695 110.682C133.406 109.423 133.954 108.013 134.337 106.453Z" fill="#0D131A"/>
<path d="M116.52 119.221C122.349 119.139 126.933 117.387 130.272 113.966L131.093 115.28C127.727 118.81 123.211 120.617 117.546 120.699C113.057 120.726 109.062 119.604 105.558 117.332C102.794 115.553 100.728 113.391 99.3595 110.846C97.6626 107.726 96.6089 104.866 96.1984 102.266C95.7331 99.5017 96.0479 97.3123 97.1426 95.6975L99.2363 94.0964C98.3058 95.4922 97.9089 97.5723 98.0458 100.336C98.1826 103.429 99.0037 106.371 100.509 109.163C101.932 111.818 103.711 113.98 105.846 115.649C108.911 118.058 112.469 119.248 116.52 119.221Z" fill="#0D131A"/>
<path d="M137.99 124.352C142.862 130.538 147.679 134.999 152.441 137.736L162.211 143.442C167.193 146.37 169.916 147.835 170.381 147.835L171.161 147.547C171.955 147.164 172.598 146.986 173.09 147.014C173.966 147.041 174.719 147.588 175.348 148.656C176.47 150.544 177.319 152.35 177.894 154.075C178.797 156.757 178.879 158.905 178.14 160.52C177.483 161.916 177.305 163.832 177.606 166.267C177.825 168.019 178.345 170.25 179.166 172.959C179.577 174.382 179.741 176.257 179.659 178.583L179.002 185.152C178.564 188.737 178.373 191.118 178.427 192.295C178.564 194.758 180.453 199.931 184.093 207.813L186.351 212.986C187.445 215.613 187.911 218.035 187.746 220.252C187.555 222.469 186.734 224.658 185.283 226.82L184.791 227.6C182.519 230.939 181.506 232.992 181.753 233.758L182.245 234.21L185.981 234.579C189.211 234.525 192.002 234.812 194.356 235.442C196.874 236.126 199.487 237.385 202.197 239.218L208.601 244.227L212.624 247.429C213.938 248.36 215.033 248.88 215.909 248.989C218.344 249.317 221.163 251.438 224.366 255.352C224.283 252.342 224.023 249.673 223.586 247.347C223.066 244.501 222.34 242.79 221.41 242.215C221.136 242.024 219.932 241.49 217.797 240.614C211.393 238.124 206.466 235.619 203.018 233.102C196.86 228.613 193.425 223.263 192.714 217.05L192.591 215.285C192.591 214.135 192.851 212.808 193.371 211.302L194.233 208.306C194.506 206.855 194.643 205.131 194.643 203.133L194.438 198.617C193.891 190.762 192.837 182.976 191.277 175.258C189.334 165.816 187.117 159.371 184.626 155.922C182.355 152.829 180.466 150.489 178.961 148.902L175.923 145.248C174.774 143.661 174.199 142.265 174.199 141.061L174.24 140.158C174.24 139.884 174.144 139.651 173.953 139.46L172.639 138.434C171.927 137.996 169.642 136.874 165.783 135.067C160.419 132.549 156.409 130.579 153.755 129.156C148.801 126.528 145.038 124.133 142.465 121.971C137.785 118.058 133.515 113.542 129.656 108.424C129.438 108.15 129.191 108.068 128.918 108.178C128.507 108.396 128.411 108.739 128.63 109.204C130.738 114.021 133.858 119.07 137.99 124.352ZM153.755 127.719C156.656 129.333 160.378 131.195 164.921 133.302L169.888 135.437C171.777 136.23 172.954 136.778 173.419 137.079C174.432 137.708 175.088 138.324 175.389 138.926C175.608 139.309 175.69 139.857 175.636 140.568C175.608 141.143 175.649 141.622 175.759 142.005C175.95 142.662 176.388 143.456 177.073 144.386L179.987 147.917L182.327 150.175C183.641 151.516 185.009 153.172 186.433 155.142C189.17 158.864 191.51 165.72 193.453 175.71C194.903 183.154 195.916 190.749 196.491 198.494C196.737 202.024 196.614 204.994 196.121 207.402L194.725 211.754L194.11 213.93C193.973 214.751 193.973 215.736 194.11 216.886C194.794 222.715 198.119 227.655 204.085 231.706C206.877 233.594 211.639 235.852 218.372 238.479C219.822 239.027 221.218 239.711 222.559 240.532C223.49 241.134 224.297 242.831 224.981 245.623C225.693 248.524 226.008 251.616 225.926 254.901C225.898 256.57 225.707 257.46 225.351 257.569C225.022 257.679 224.256 257.131 223.052 255.927C221.875 254.75 220.534 253.669 219.029 252.684C217.332 251.562 215.95 250.932 214.882 250.795C213.897 250.686 212.789 250.056 211.557 248.907L207.698 245.294L201.499 240.45C198.872 238.698 196.367 237.48 193.986 236.796L188.157 236.139L183.272 236.18C182.314 236.208 181.493 236.057 180.808 235.729C180.206 235.455 179.85 235.154 179.741 234.826C179.522 234.059 179.85 232.883 180.726 231.295L183.6 226.779L184.134 226.04C185.447 224.07 186.173 222.086 186.309 220.088C186.446 218.117 186.022 215.928 185.037 213.519L182.779 208.388L178.879 200.013C177.51 196.811 176.785 194.416 176.703 192.829C176.676 192.008 176.772 190.79 176.99 189.175L177.606 184.988C178.236 179.815 178.14 175.846 177.319 173.082C175.595 167.39 175.43 163.011 176.826 159.945C177.374 158.796 177.333 157.154 176.703 155.019C176.183 153.24 175.335 151.365 174.158 149.395C173.775 148.793 173.405 148.478 173.049 148.45C172.803 148.423 172.379 148.546 171.777 148.82L170.668 149.23C169.437 149.477 166.385 148.149 161.514 145.248L150.881 138.557C145.818 135.683 140.905 131.071 136.143 124.722C132.475 119.796 129.533 114.801 127.316 109.738C127.07 109.19 127.056 108.643 127.275 108.095C127.467 107.603 127.782 107.233 128.22 106.987C128.63 106.741 129.054 106.659 129.492 106.741C129.985 106.795 130.409 107.069 130.765 107.562C134.542 112.543 138.743 116.977 143.368 120.863C145.941 123.025 149.403 125.31 153.755 127.719Z" fill="#0D131A"/>
<path d="M167.384 94.3428L168.78 94.5481C168.479 95.6975 168.151 98.0923 167.795 101.732C167.466 105.181 167.288 107.849 167.261 109.738C167.234 111.133 166.344 112.83 164.593 114.828L161.76 117.497C161.651 117.606 161.459 118.017 161.185 118.728C160.884 119.796 160.474 120.384 159.954 120.494C159.324 120.63 158.531 120.192 157.573 119.18C155.137 116.552 150.922 114.295 144.928 112.406L140.946 111.298L137.251 110.559C136.129 110.23 135.199 109.532 134.46 108.465C128.466 99.8439 124.087 94.5618 121.323 92.6186C120.693 92.1807 120.297 91.688 120.132 91.1407C119.996 90.648 120.064 90.1965 120.338 89.7859C120.94 88.9375 122.349 88.7186 124.566 89.1291C127.057 89.5944 129.643 90.7165 132.325 92.4954C134.487 93.946 138.374 96.9702 143.984 101.568L154.822 110.436C154.822 107.945 155.301 106.07 156.259 104.811C156.971 103.935 158.353 101.075 160.405 96.2312L162.417 91.7154L163.607 92.4954C163.224 93.2891 162.595 94.726 161.719 96.806L159.625 101.979C158.886 103.84 158.298 105.044 157.86 105.591C157.203 106.412 156.793 107.398 156.628 108.547L156.3 111.872C156.163 112.912 155.931 113.337 155.602 113.145L155.151 112.529C142.588 102.54 134.227 96.1628 130.067 93.3986C127.686 91.8112 125.633 90.8259 123.909 90.4428C122.568 90.1417 121.775 90.1965 121.528 90.607C121.473 90.6617 121.501 90.7712 121.61 90.9354L122.144 91.4691C124.06 92.8102 126.564 95.3554 129.657 99.1049C131.846 101.76 133.803 104.332 135.527 106.823C136.184 107.781 136.978 108.479 137.908 108.917C138.51 109.218 139.633 109.56 141.275 109.943L145.339 111.051C151.661 113.049 156.081 115.43 158.599 118.195L159.584 119.057L159.831 118.318C160.104 117.332 160.446 116.689 160.857 116.388C162.034 115.458 163.101 114.404 164.059 113.227C165.236 111.777 165.824 110.6 165.824 109.697C165.852 107.918 166.016 105.372 166.317 102.061C166.673 98.3386 167.028 95.766 167.384 94.3428Z" fill="#0D131A"/>
<path d="M196.983 3.04109C196.162 2.54846 188.992 13.3591 175.471 35.4729C161.842 57.7236 154.699 70.5731 154.042 74.0216C153.85 74.9795 153.755 76.0058 153.755 77.1005C153.755 80.3848 154.644 83.3406 156.423 85.968C158.339 88.7869 161.076 90.8259 164.634 92.0848C169.04 93.6175 173.72 93.6448 178.674 92.1669C183.545 90.689 186.487 88.4174 187.5 85.3522C189.361 79.769 191.687 64.7025 194.479 40.1529C197.216 15.7401 198.051 3.36951 196.983 3.04109ZM197.558 1.76845C198.844 2.15161 198.653 12.4012 196.983 32.5171C195.232 53.7277 192.837 71.1342 189.799 84.7364C189.033 88.2669 185.844 91.0448 180.234 93.0701C174.951 94.9585 170.203 95.3828 165.988 94.3427C160.624 93.0017 156.738 90.1827 154.329 85.8858C152.167 82.0542 151.565 77.8942 152.523 73.4058C153.755 67.8499 161.103 54.3709 174.568 32.9687C188.006 11.6211 195.67 1.22108 197.558 1.76845Z" fill="#0D131A"/>
<path d="M152.4 74.9659L153.303 74.8016C153.659 76.6627 154.767 78.7017 156.628 80.9185C158.79 83.5185 161.418 85.5575 164.511 87.0354C167.521 88.4859 170.709 89.2112 174.076 89.2112C178.51 89.2112 183.053 87.9523 187.705 85.4343L188.157 86.2554C183.285 88.8554 178.646 90.2238 174.24 90.3607C170.764 90.4702 167.535 89.8133 164.552 88.3901C161.349 86.8575 158.53 84.627 156.095 81.6985C154.015 79.1806 152.783 76.9364 152.4 74.9659Z" fill="#0D131A"/>
<path d="M73.5374 54.5625C77.7248 52.6467 82.7059 51.6888 88.4807 51.6888L88.2344 53.331C82.8428 53.4404 78.2859 54.3299 74.5638 55.9994C73.688 56.3826 73.0037 56.7247 72.5111 57.0257L71.5669 55.5478L73.5374 54.5625Z" fill="#0D131A"/>
<path d="M98.9902 53.4129V54.8908C97.786 54.2887 95.747 53.8234 92.8733 53.495L93.1196 52.0171C95.747 52.3181 97.7039 52.7834 98.9902 53.4129Z" fill="#0D131A"/>
<path d="M103.588 88.4724L106.379 87.5281C103.068 91.4418 100.016 94.7398 97.2246 97.4219C92.134 102.266 88.3708 104.579 85.935 104.36C84.7855 104.25 82.8834 103.238 80.2286 101.322C77.3549 99.2693 74.7002 96.9293 72.2644 94.3019V92.9061L72.0181 91.4692C74.5633 94.5071 77.3413 97.1756 80.3518 99.4745C82.9518 101.445 84.7445 102.471 85.7297 102.554C87.3992 102.636 90.3277 100.925 94.5151 97.4219C98.1277 94.384 101.152 91.4008 103.588 88.4724Z" fill="#0D131A"/>
<path d="M68.8983 57.3952L69.9246 58.791C67.1057 61.0352 65.2036 63.8952 64.2183 67.3711L63.972 68.3563L62.5762 68.0279L62.8225 66.9605C63.9993 62.9647 66.0246 59.7763 68.8983 57.3952Z" fill="#0D131A"/>
<path d="M62.5351 68.6847C60.7562 69.451 59.8393 71.6815 59.7846 75.3763C59.7025 79.2626 60.6604 83.0532 62.6583 86.7479C63.8899 88.9922 65.4225 90.7985 67.2562 92.1669C68.9804 93.4259 70.3352 93.9048 71.3204 93.6038C71.4846 93.6038 71.5531 93.4396 71.5257 93.1111C71.3615 90.8122 69.9931 86.1048 67.4204 78.9889C64.8204 71.8457 63.192 68.411 62.5351 68.6847ZM61.673 67.5762L63.7667 67.6583C64.8341 68.5889 66.6404 72.7352 69.1857 80.0974C71.0468 85.4342 72.1415 89.2932 72.4699 91.6743C72.7436 93.6448 72.4973 94.7396 71.731 94.9585C70.3352 95.369 68.5288 94.8764 66.312 93.4806C64.013 92.0301 62.2341 90.1553 60.9751 87.8564C58.9498 84.1616 58.0603 80.2205 58.3067 76.0331C58.5256 72.0099 59.6477 69.191 61.673 67.5762Z" fill="#0D131A"/>
<path d="M103.916 61.993L104.286 63.3888C101.22 64.2099 98.7573 66.9878 96.8963 71.7226C95.0626 76.43 94.6247 81.0826 95.5826 85.6806C95.9931 87.6785 96.8005 88.8827 98.0047 89.2932C99.2363 89.7311 100.837 89.5122 102.808 88.6364C104.806 87.7606 106.899 86.3374 109.089 84.3669C110.403 83.2174 111.443 81.5753 112.209 79.4405C112.921 77.47 113.29 75.4037 113.317 73.2415C113.372 69.191 111.963 65.852 109.089 63.2246L110.033 62.1573C111.675 63.6352 112.934 65.3046 113.81 67.1657C114.741 69.1363 115.192 71.1889 115.165 73.3236C115.11 75.9784 114.741 78.2363 114.056 80.0974C113.317 82.0953 112.113 83.9427 110.444 85.6395C108.117 87.9658 105.695 89.5532 103.177 90.4017L97.5531 90.648C95.8562 90.0459 94.7341 88.4859 94.1868 85.9679C93.1468 80.9595 93.6394 75.9373 95.6647 70.9015C97.7173 65.8931 100.468 62.9236 103.916 61.993Z" fill="#0D131A"/>
<path d="M72.0184 62.1984C72.3742 62.9099 72.7573 63.4984 73.1679 63.9636L73.9068 64.4973C74.5363 64.2784 74.5089 63.2657 73.8247 61.4594C73.0037 59.3246 70.4173 54.973 66.0657 48.4046C62.3162 42.7666 59.5383 38.7982 57.732 36.4992C56.4457 34.8571 55.2004 33.9676 53.9962 33.8308C52.7646 33.694 51.273 34.2961 49.5214 35.6371C47.5782 37.0877 43.2814 41.453 36.6308 48.733C29.9528 55.9857 26.1897 60.4194 25.3412 62.0341C24.9033 62.8552 24.8212 63.9499 25.0949 65.3184C25.3686 66.6868 25.9023 67.8773 26.696 68.89C27.6265 70.0395 28.557 70.4774 29.4876 70.2037C30.4455 69.9574 31.3486 69.3416 32.1971 68.3563L34.6602 64.8668C35.8918 62.8963 36.8634 61.4457 37.575 60.5152C40.5855 56.492 43.815 52.5646 47.2635 48.733C50.2467 45.394 52.5183 43.2182 54.0783 42.2056C55.2004 41.4666 56.0762 41.3024 56.7057 41.713C57.9099 42.5066 60.5236 45.6403 64.5468 51.1141C68.4331 56.3415 70.9236 60.0362 72.0184 62.1984ZM75.1384 60.9668C75.6037 62.2257 75.7679 63.252 75.631 64.0457C75.4942 64.7573 75.1247 65.2226 74.5226 65.4415C73.4005 65.8521 72.3331 65.0036 71.3205 62.8963C70.3352 60.871 67.7626 57.1899 63.6025 51.853C59.5246 46.5982 56.9657 43.6151 55.9256 42.9035C55.1046 42.794 52.8467 44.7509 49.1519 48.7741C45.6487 52.5783 42.1729 56.7794 38.7245 61.3773L35.8508 65.6057L33.1413 69.5058C32.1013 70.71 30.9928 71.4763 29.816 71.8047C28.2286 72.27 26.8055 71.7089 25.5465 70.1216C24.5886 68.9447 23.9044 67.5352 23.4939 65.8931C23.056 64.0594 23.1381 62.5815 23.7402 61.4594C24.6433 59.7899 28.4749 55.2194 35.235 47.7477C42.0224 40.2214 46.4014 35.7192 48.3719 34.2413C50.4793 32.6539 52.2993 31.9013 53.832 31.9834C55.4193 32.0929 56.9657 33.1055 58.4709 35.0213C60.3867 37.4571 63.2741 41.5761 67.1331 47.3783C71.6489 54.193 74.3174 58.7225 75.1384 60.9668Z" fill="#0D131A"/>
<path d="M95.747 27.1803C95.227 26.2224 94.7207 25.4971 94.2281 25.0045C93.8175 24.5939 93.5028 24.4161 93.2838 24.4708C93.147 24.4708 92.9965 24.6076 92.8323 24.8813C92.5312 25.374 92.2849 26.154 92.0933 27.2213C91.9017 28.3161 91.1765 34.6382 89.9175 46.1878C88.9322 55.8215 88.3301 61.1995 88.1112 62.3216C88.0291 62.6774 88.0428 62.9784 88.1522 63.2247L88.5217 63.5942C88.8775 63.6763 89.1786 63.3479 89.4249 62.6089L92.2986 51.812L94.187 44.0941C94.406 43.273 94.5975 42.8488 94.7618 42.8214C94.9533 42.8214 95.2133 43.2183 95.5418 44.012C96.6639 46.7488 98.4565 50.512 100.92 55.3015C103.875 61.1037 105.723 64.0732 106.462 64.21C107.256 64.3468 108.104 63.8816 109.007 62.8142C109.828 61.8289 110.485 60.5973 110.978 59.1194C111.224 58.3531 111.347 57.5594 111.347 56.7384C111.347 55.3699 110.964 54.0836 110.198 52.8794C108.391 49.9783 105.463 44.8604 101.412 37.5256L95.747 27.1803ZM93.0375 23.075C94.4881 22.856 95.7744 23.7729 96.8965 25.8255C103.602 38.2782 108.528 47.0362 111.676 52.0994C113.071 54.3162 113.331 56.7931 112.456 59.53C111.908 61.2268 111.06 62.7868 109.91 64.21C108.788 65.6332 107.844 66.3447 107.078 66.3447C106.147 66.3447 105.271 65.8658 104.45 64.9079C103.219 63.4026 101.453 60.2826 99.1544 55.5478C97.5944 52.3183 96.226 49.3078 95.0491 46.5162C93.9544 51.0868 92.4902 56.3142 90.6565 62.1984C90.3828 63.0468 90.027 63.6763 89.5891 64.0868C89.1512 64.4974 88.6996 64.6342 88.2343 64.4974C87.7691 64.3879 87.427 64.0595 87.208 63.5121C87.0164 62.9647 86.9754 62.2942 87.0849 61.5005L88.8501 44.3814L90.6975 26.975C91.108 24.5392 91.8881 23.2392 93.0375 23.075Z" fill="#0D131A"/>
<path d="M66.6403 78.0447C67.0508 79.3857 67.174 80.6036 67.0098 81.6984C66.8182 82.7931 66.394 83.4363 65.7371 83.6279C65.0529 83.8195 64.3413 83.5184 63.6024 82.7247C62.8634 81.9037 62.2887 80.8089 61.8781 79.4405C61.495 78.072 61.3855 76.8541 61.5497 75.7868C61.7413 74.692 62.1655 74.0489 62.8224 73.8573C63.4792 73.6657 64.1771 73.9804 64.9161 74.8015C65.6824 75.6226 66.2571 76.7036 66.6403 78.0447Z" fill="white"/>
<path d="M98.2508 72.8722C98.9624 71.3122 99.9613 70.149 101.248 69.3827C102.507 68.6437 103.656 68.5069 104.696 68.9722C105.763 69.4648 106.42 70.4364 106.667 71.8869C106.886 73.3375 106.639 74.8427 105.928 76.4027C105.216 77.9627 104.231 79.1259 102.972 79.8922C101.713 80.6312 100.55 80.7543 99.4824 80.2617C98.415 79.7964 97.7582 78.8385 97.5118 77.388C97.2929 75.9375 97.5392 74.4322 98.2508 72.8722Z" fill="white"/>
</g>
<defs>
<clipPath id="clip0_1_55035">
<rect width="225.257" height="257.319" fill="white" transform="translate(0.791504 0.680786)"/>
</clipPath>
</defs>
</svg>
