<svg width="254" height="259" viewBox="0 0 254 259" fill="none" xmlns="http://www.w3.org/2000/svg">
<g clip-path="url(#clip0_1_55305)">
<path d="M191.437 159.874C192.741 159.44 193.657 159.626 194.185 160.433L195.164 158.011C197.431 161.272 198.362 168.616 197.958 180.044C197.493 193.056 195.086 204.671 190.738 214.888C185.086 228.055 180.024 234.747 175.552 234.965L173.41 235.197L164.14 234.639C159.357 234.048 156.376 233.381 155.196 232.635L143.97 215.54C143.908 214.018 146.004 210.261 150.258 204.267C154.016 198.926 158.566 193.072 163.907 186.706C169.497 180.029 174.667 174.315 179.419 169.563C185.009 163.942 189.015 160.713 191.437 159.874Z" fill="#0D131A"/>
<path d="M152.913 225.183C157.447 219.531 163.55 214.779 171.22 210.929C179.294 206.891 185.894 205.572 191.018 206.969C190.117 210.416 189.046 213.692 187.803 216.798C185.04 223.816 182.384 228.537 179.838 230.959C178.347 232.356 176.562 233.102 174.481 233.195L173.456 233.288L164.326 232.589C159.668 231.875 156.826 231.207 155.801 230.586C155.336 230.307 154.482 228.754 153.239 225.928L152.913 225.183H152.867V225.136L152.913 225.183Z" fill="#5DC1CF"/>
<path d="M193.114 161.178C194.636 163.383 195.319 168.942 195.164 177.855C194.977 187.854 193.595 197.559 191.018 206.969C185.894 205.571 179.295 206.891 171.22 210.928C163.55 214.779 157.432 219.53 152.867 225.182V225.136C151.594 222.403 150.507 220.384 149.606 219.08C148.209 217.061 146.765 215.85 145.274 215.447V215.353C145.274 214.266 146.889 211.394 150.119 206.736C153.628 201.612 158.115 195.742 163.581 189.128C169.574 181.892 175.071 175.759 180.071 170.728C185.04 165.728 188.72 162.638 191.111 161.458C192.198 160.868 192.866 160.775 193.114 161.178Z" fill="#50A8B4"/>
<path d="M192.089 174.827C193.331 176.287 193.952 177.467 193.952 178.368L193.906 178.74C192.726 183.833 190.893 188.414 188.409 192.482C186.297 195.929 183.099 199.889 178.813 204.361C176.111 207.187 171.826 209.997 165.957 212.792C159.435 215.897 152.758 218.071 145.926 219.313L147.557 231.518C148.209 237.542 148.535 242.03 148.535 244.98C148.535 245.819 148.286 246.719 147.789 247.682C147.479 248.769 146.889 249.545 146.019 250.011C143.69 251.284 139.389 252.278 133.116 252.992C126.905 253.675 123.132 253.629 121.797 252.852C116.393 249.654 110.462 243.226 104.002 233.567C97.4187 223.754 93.0866 214.717 91.0059 206.457C87.8694 205.215 84.5466 203.507 81.0374 201.333C77.6214 199.221 74.9507 197.249 73.0253 195.417C72.1868 198.988 70.6496 202.264 68.4136 205.246C67.3267 206.705 66.3019 207.823 65.3392 208.599C64.066 210.152 59.532 210.866 51.7372 210.742L40.4178 210.044C38.244 209.671 36.6136 208.972 35.5267 207.947C34.3466 206.798 33.6479 205.106 33.4305 202.87C33.0578 199.268 33.1665 195.712 33.7566 192.203L34.5485 186.473L35.0609 182.327C35.2472 181.333 35.2317 179.874 35.0143 177.948L34.6416 175.34C33.4926 166.489 33.2597 159.937 33.9429 155.682C34.7814 150.527 37.4521 143.944 41.955 135.931C47.079 126.832 54.6409 120.218 64.6405 116.087C70.603 113.634 76.7984 112.237 83.2267 111.895C88.1023 111.647 97.5896 115.063 111.688 122.143C120.197 126.398 129.421 131.475 139.358 137.375C151.873 144.798 163.037 152.002 172.851 158.99C182.664 165.977 189.077 171.256 192.089 174.827Z" fill="#0D131A"/>
<path d="M65.8982 117.484C71.6744 114.938 77.4661 113.509 83.2733 113.199C90.3848 112.826 110.601 123.602 143.923 145.527C160.6 156.52 176.546 167.576 191.763 178.693C190.397 183.227 188.658 187.295 186.546 190.898C183.999 195.214 180.707 199.283 176.67 203.102C172.136 207.357 165.77 210.913 157.572 213.77C151.671 215.85 147.743 216.891 145.786 216.891C145.352 216.891 145.026 216.145 144.808 214.655L144.342 210.602C144.249 209.329 143.861 208.91 143.178 209.344C142.526 209.779 142.324 210.788 142.572 212.372C143.349 216.534 144.249 222.651 145.274 230.726C146.485 240.446 146.904 245.989 146.532 247.355C146.532 247.573 146.175 247.883 145.46 248.287C143.255 249.467 139.234 250.445 133.396 251.222L123.101 251.641C122.138 251.361 120.259 249.824 117.465 247.029C114.049 243.675 110.788 239.825 107.682 235.477C98.6454 222.9 93.4748 210.059 92.1705 196.953C91.891 194.096 91.5183 192.171 91.0525 191.177C90.5556 190.246 90.214 190.587 90.0277 192.202C89.7482 194.314 89.9501 198.196 90.6333 203.848C84.0497 201.332 77.171 196.488 69.9974 189.314C59.3767 178.724 53.4297 166.83 52.1565 153.632C52.0012 151.986 51.7683 150.837 51.4577 150.185C51.1472 149.564 50.8832 149.595 50.6658 150.278C50.1069 152.11 50.3553 156.023 51.4112 162.017C52.1875 166.24 53.4608 170.138 55.2309 173.709C58.5537 180.293 63.8796 187.094 71.2085 194.112C70.898 195.944 70.2458 197.916 69.2521 200.028C68.1652 202.357 66.8609 204.422 65.3392 206.223C64.7492 207 63.4138 207.683 61.3331 208.273C57.2029 209.484 51.3956 209.686 43.9114 208.879L41.955 208.506C39.7812 208.133 38.1508 207.388 37.0639 206.27C36.0701 205.245 35.4801 203.817 35.2938 201.984C35.1074 199.717 35.2627 197.031 35.7596 193.926L36.831 186.799C37.1415 184.097 37.2191 181.907 37.0639 180.231C36.1322 170.604 35.7751 164.284 35.9925 161.272C36.5825 153.135 39.2998 144.999 44.1444 136.863C49.3305 128.074 56.5818 121.615 65.8982 117.484Z" fill="#5DC1CF"/>
<path d="M76.8915 188.01C81.7671 190.246 86.1458 191.643 90.0277 192.202C89.7482 194.314 89.95 198.196 90.6332 203.848C85.6334 201.923 80.0436 198.274 73.8637 192.901C64.951 185.168 58.709 176.458 55.1377 166.769C59.8891 176.427 67.1403 183.507 76.8915 188.01Z" fill="#50A8B4"/>
<path d="M71.2084 194.112C70.8978 195.944 70.2457 197.916 69.2519 200.028C68.165 202.357 66.8607 204.422 65.339 206.223L63.2894 207.574C61.2087 208.506 58.3672 209.065 54.7649 209.251C59.392 207.419 61.4417 202.574 60.9137 194.718C60.4479 188.196 58.4294 180.929 54.8581 172.917C58.1499 179.811 63.6 186.876 71.2084 194.112Z" fill="#50A8B4"/>
<path d="M60.9138 119.814C64.982 117.484 69.4073 115.73 74.1897 114.55C77.3573 113.804 80.3851 113.354 83.2732 113.199C90.3848 112.826 110.601 123.602 143.923 145.527C160.599 156.52 176.546 167.576 191.763 178.693C190.396 183.227 188.657 187.295 186.546 190.898C183.999 195.214 180.707 199.283 176.67 203.102C172.136 207.357 165.77 210.913 157.572 213.77C151.671 215.85 147.743 216.891 145.786 216.891C145.352 216.891 145.026 216.145 144.808 214.655L144.342 210.602C144.249 209.329 143.861 208.91 143.178 209.344C142.526 209.779 142.324 210.788 142.572 212.372C143.349 216.534 144.249 222.651 145.274 230.726C146.485 240.446 146.904 245.989 146.532 247.355C146.532 247.573 146.175 247.883 145.46 248.287L143.504 249.079C143.659 240.228 142.634 232.791 140.429 226.766C136.827 216.891 130.119 209.996 120.306 206.084C118.256 186.084 114.499 170.246 109.033 158.57C99.1577 137.577 83.1179 124.658 60.9138 119.814Z" fill="#50A8B4"/>
<path d="M44.7034 204.081C45.2935 204.143 46.1009 204.779 47.1257 205.99C48.2126 207.264 48.725 208.397 48.6629 209.391C48.6008 210.447 48.1505 211.596 47.312 212.838C46.4735 214.08 45.7748 214.701 45.2158 214.701C44.6568 214.701 43.7407 213.894 42.4675 212.279C41.1942 210.695 40.5576 209.608 40.5576 209.018C40.5266 208.459 41.0856 207.497 42.2346 206.13C43.3836 204.733 44.2066 204.05 44.7034 204.081Z" fill="#0D131A"/>
<path d="M46.8927 207.295C47.4517 208.164 47.7156 208.817 47.6846 209.251C47.6846 209.717 47.3585 210.509 46.7064 211.627C46.0231 212.714 45.5573 213.257 45.3089 213.257C44.9983 213.257 44.3307 212.73 43.3059 211.674C42.25 210.587 41.7531 209.795 41.8152 209.298C41.8463 208.832 42.4829 207.73 43.7251 205.991C44.0667 205.494 44.3617 205.214 44.6102 205.152C44.8275 205.121 45.1226 205.261 45.4952 205.571L46.8927 207.295Z" fill="white"/>
<path d="M52.2029 210.416C52.1408 209.919 52.6377 208.847 53.6936 207.202C54.7805 205.494 55.6034 204.608 56.1624 204.546C56.7524 204.515 57.6065 205.23 58.7244 206.689C59.8424 208.18 60.3237 209.251 60.1685 209.903L59.33 212.652C58.8021 213.863 58.2275 214.639 57.6065 214.981C56.9854 215.322 55.9295 214.763 54.4389 213.304C53.0414 211.937 52.2961 210.975 52.2029 210.416Z" fill="#0D131A"/>
<path d="M56.1623 205.897C56.4418 205.804 57.0008 206.317 57.8393 207.435C58.6778 208.584 59.1436 209.484 59.2368 210.136L58.4915 212.186C57.9635 213.273 57.5598 213.863 57.2803 213.956C56.9698 214.049 56.2245 213.584 55.0444 212.559C53.8954 211.534 53.2898 210.82 53.2277 210.416C53.1966 210.012 53.6159 209.174 54.4854 207.9C55.3239 206.689 55.8829 206.022 56.1623 205.897Z" fill="white"/>
<path d="M62.2184 209.018C62.2184 208.304 62.5134 207.31 63.1034 206.037C63.8487 204.484 64.6872 203.491 65.6189 203.056C66.6126 202.559 67.6374 203.553 68.6933 206.037C69.7181 208.46 70.0442 210.369 69.6715 211.767C69.4852 212.543 68.1809 212.419 65.7586 211.394C63.3674 210.338 62.1873 209.546 62.2184 209.018Z" fill="#0D131A"/>
<path d="M65.5256 204.128C65.9604 203.972 66.597 204.966 67.4355 207.109C68.274 209.19 68.6466 210.37 68.5535 210.649C68.4914 210.835 67.684 210.634 66.1312 210.044C64.5164 209.454 63.6468 208.972 63.5226 208.6C63.3984 208.165 63.5847 207.357 64.0816 206.177C64.6095 204.997 65.0909 204.314 65.5256 204.128Z" fill="white"/>
<path d="M122.309 252.014C122.433 251.113 122.915 250.166 123.753 249.172C124.592 248.21 125.306 247.697 125.896 247.635C126.641 247.604 127.464 248.054 128.365 248.986C129.172 249.855 129.685 250.709 129.902 251.548C130.026 252.045 129.7 253.272 128.924 255.228C128.116 257.215 127.511 258.163 127.107 258.069C126.579 257.945 125.647 257.045 124.312 255.368C122.915 253.66 122.247 252.542 122.309 252.014Z" fill="#0D131A"/>
<path d="M123.707 252.293C123.769 251.672 124.002 251.02 124.405 250.337C124.84 249.561 125.29 249.11 125.756 248.986C126.253 248.831 126.905 249.203 127.713 250.104C128.458 250.911 128.846 251.548 128.877 252.014L128.178 254.343C127.713 255.461 127.355 256.082 127.107 256.206C126.828 256.33 126.191 255.849 125.197 254.762C124.172 253.613 123.676 252.79 123.707 252.293Z" fill="white"/>
<path d="M136.191 246.284C136.843 246.222 137.868 246.657 139.265 247.588C140.787 248.582 141.532 249.483 141.501 250.29L140.895 254.156C140.492 255.865 140.088 256.765 139.684 256.858C138.97 257.045 137.681 256.486 135.818 255.181C133.924 253.877 132.914 252.821 132.79 252.014C132.728 251.424 133.147 250.337 134.048 248.753C134.979 247.138 135.694 246.315 136.191 246.284Z" fill="#0D131A"/>
<path d="M136.703 247.728C136.982 247.666 137.604 247.961 138.566 248.614C139.56 249.266 140.088 249.763 140.15 250.104L139.917 252.852C139.669 254.343 139.436 255.151 139.218 255.275C138.939 255.43 138.038 254.949 136.517 253.831C134.995 252.682 134.234 251.89 134.234 251.455C134.234 251.02 134.576 250.29 135.259 249.266C135.942 248.303 136.423 247.791 136.703 247.728Z" fill="white"/>
<path d="M145.6 242.977C146.718 242.542 148.085 243.768 149.699 246.657C151.314 249.545 151.78 251.486 151.097 252.479C150.911 252.759 149.777 252.619 147.696 252.06L143.644 250.709L142.526 249.917C142.37 249.638 142.37 249.125 142.526 248.38C142.681 247.542 143.1 246.501 143.783 245.259C144.498 243.924 145.103 243.163 145.6 242.977Z" fill="#0D131A"/>
<path d="M146.159 244.328C147.246 244.949 148.209 246.16 149.047 247.961C149.761 249.545 150.056 250.57 149.932 251.035C149.839 251.315 148.876 251.144 147.044 250.523C145.243 249.902 144.234 249.467 144.016 249.219C143.799 248.939 143.985 247.992 144.575 246.377C145.165 244.731 145.693 244.048 146.159 244.328Z" fill="white"/>
<path d="M153.053 228.956C153.115 228.676 153.659 228.288 154.684 227.791C155.802 227.232 156.625 227.077 157.152 227.325C157.774 227.605 158.395 228.397 159.016 229.701C159.668 231.005 159.854 231.859 159.575 232.263L157.385 234.359C156.143 235.322 155.243 235.757 154.684 235.664C154.125 235.539 153.674 234.53 153.333 232.636C152.991 230.897 152.898 229.67 153.053 228.956Z" fill="#0D131A"/>
<path d="M156.593 228.164C156.904 228.226 157.292 228.723 157.758 229.654C158.193 230.586 158.333 231.192 158.177 231.471L156.64 233.195C155.739 234.064 155.165 234.499 154.917 234.499C154.699 234.499 154.497 233.754 154.311 232.263L154.125 229.654C154.156 229.406 154.497 229.08 155.149 228.676C155.833 228.272 156.314 228.102 156.593 228.164Z" fill="white"/>
<path d="M164.838 231.005C165.863 230.104 166.702 229.607 167.354 229.514C168.037 229.39 168.907 229.949 169.962 231.191C170.956 232.371 171.453 233.21 171.453 233.707C171.453 234.141 170.848 235.135 169.636 236.688C168.332 238.365 167.323 239.172 166.609 239.11C165.863 239.048 165.025 238.085 164.093 236.222C163.193 234.421 162.898 233.272 163.208 232.775C163.457 232.371 164 231.781 164.838 231.005Z" fill="#0D131A"/>
<path d="M167.494 230.493C167.866 230.617 168.379 231.021 169.031 231.704C169.807 232.481 170.149 233.071 170.056 233.474L168.425 236.176C167.401 237.511 166.764 238.164 166.515 238.132C166.205 238.132 165.739 237.403 165.118 235.943C164.466 234.484 164.233 233.521 164.419 233.055C164.606 232.558 165.102 231.984 165.91 231.332C166.717 230.648 167.245 230.369 167.494 230.493Z" fill="white"/>
<path d="M176.857 231.191C178.006 229.825 178.984 229.173 179.791 229.235C180.816 229.328 181.422 230.477 181.608 232.682C181.825 234.918 181.36 236.672 180.211 237.946C179.496 238.722 178.487 238.349 177.183 236.828C175.972 235.399 175.366 234.25 175.366 233.381C175.366 233.132 175.863 232.402 176.857 231.191Z" fill="#0D131A"/>
<path d="M178.114 231.518C178.922 230.71 179.45 230.415 179.698 230.633C179.947 230.85 180.195 231.316 180.444 232.03L180.77 233.8L180.35 235.291C180.071 236.192 179.791 236.766 179.512 237.015C179.232 237.263 178.689 236.797 177.882 235.617C177.167 234.561 176.764 233.8 176.67 233.335C176.95 232.838 177.431 232.232 178.114 231.518Z" fill="white"/>
<path d="M78.1026 54.5987L88.8631 60.701L114.53 88.7434L77.6368 94.9388L63.01 89.349C53.2899 85.5603 48.492 83.5262 48.6162 83.2467C48.7404 83.0293 50.6347 81.958 54.2992 80.0326L63.4293 75.0017C61.0381 75.8091 57.7307 77.1755 53.5073 79.1009L47.9174 81.5698C47.5758 81.5387 45.8057 80.2189 42.6071 77.6103C39.3774 74.9706 37.8712 73.5576 38.0886 73.3713L43.1661 70.623C46.6442 68.6976 49.1131 67.0517 50.5726 65.6853C47.8709 66.4306 44.548 67.6572 40.6041 69.3653L35.3403 71.6012C34.9676 71.5701 33.477 70.4366 30.8684 68.2007C28.2598 65.9337 27.0487 64.6915 27.235 64.4741C27.3903 64.2878 28.7256 63.6201 31.2411 62.4711L37.9955 59.3035L29.4709 60.8873L23.6016 61.819C23.0737 61.7879 22.2507 61.4153 21.1328 60.701C20.0458 59.9557 19.4868 59.4433 19.4558 59.1638C19.4247 58.9464 20.4806 58.3098 22.6234 57.2539L27.8406 54.6919L21.6452 54.6453C19.0366 54.5211 17.8565 54.2261 18.1049 53.7603C18.3534 53.3255 19.58 52.3162 21.7849 50.7324L25.1854 48.4033L27.6077 48.9157L25.9307 48.3567C25.0301 48.0151 24.704 47.7822 24.9525 47.658L28.7256 46.4003C30.9305 45.7171 32.1416 45.391 32.359 45.4221L39.2998 49.335L37.0172 46.6798L35.2937 44.4438C35.0763 43.947 36.9241 43.5588 40.837 43.2793L47.1721 43.5122L50.759 49.661L50.1068 46.1674C49.8894 44.8941 49.8428 44.1954 49.9671 44.0712L52.2962 44.2575C53.6626 44.537 54.4855 44.7699 54.765 44.9563C54.9824 45.1426 55.883 46.6177 57.4668 49.3815L56.1625 46.0276C55.6656 44.7855 55.4793 44.0712 55.6035 43.8849C55.7277 43.6675 58.0102 44.4904 62.4511 46.3537C66.8298 48.217 69.1123 49.3039 69.2986 49.6145L71.0687 54.2727L70.6029 52.1299L70.37 50.7324C70.4632 50.6082 73.0407 51.897 78.1026 54.5987Z" fill="#0D131A"/>
<path d="M112.247 87.9518L77.7766 93.728L51.3646 83.1073C60.3083 78.2628 65.5877 75.2039 67.2025 73.9306L69.1124 72.44L66.7367 72.9058C65.1529 73.3095 61.8611 74.5051 56.8613 76.4926C52.3273 78.3249 49.4081 79.5671 48.1038 80.2192L40.1849 73.6045L46.4269 70.1109C49.5945 68.1544 51.8925 66.4309 53.321 64.9403L54.9048 63.4031C54.9359 63.2478 54.0198 63.4652 52.1565 64.0552L42.9332 67.316L35.5267 70.2041L29.3313 64.8005L35.6198 61.7727L42.0016 58.5585L43.7717 57.6735C44.5481 57.1766 43.8338 57.1145 41.6289 57.4871L23.8346 60.6081L21.7384 59.2573L30.589 54.5991L32.033 54.0401C32.6541 53.6364 32.0641 53.45 30.2629 53.4811L24.6265 53.6208L19.7354 53.5743C21.0086 52.27 22.934 50.9346 25.5115 49.5682L33.8497 51.7576L36.2254 52.6892C37.4365 53.0308 37.0484 52.596 35.0609 51.3849C33.1044 50.1738 31.6138 49.3353 30.589 48.8695L28.2133 47.8912L32.2193 46.6801L41.6289 51.9439C41.8774 52.006 41.8153 51.711 41.4426 51.0588C40.1073 48.6987 38.7408 46.6646 37.3434 44.9566L46.7995 44.6305C48.6007 48.2018 50.1224 50.9501 51.3646 52.8755C52.0478 53.9003 52.4515 54.2419 52.5757 53.9003V53.1084C51.8304 49.1334 51.3801 46.5248 51.2248 45.2826L54.1595 45.9814L60.5413 56.8816C61.1313 57.5648 61.1313 56.8505 60.5413 54.7388L58.7711 49.1955L57.5134 45.9814L68.3671 50.4998L72.9321 62.4714L73.3979 60.515L71.9073 52.4097C73.4911 53.0929 76.1152 54.4748 79.7797 56.5555C83.2888 58.5741 86.0838 60.2665 88.1644 61.633L112.247 87.9518Z" fill="#00A63C"/>
<path d="M84.7174 86.4611L80.6647 77.6105L98.5057 85.7158L140.709 101.46L140.15 102.159C136.827 106.258 133.334 110.296 129.669 114.271C122.433 122.127 117.185 126.724 113.924 128.059L113.691 128.152L113.459 128.059C110.167 126.848 102.946 126.289 91.7978 126.382H76.0065C75.727 125.947 75.2146 124.705 74.4693 122.655L72.2799 116.227L73.1184 126.475L73.0253 127.826C72.9321 128.105 72.6992 128.292 72.3265 128.385C60.0599 130 53.8334 130.59 53.6471 130.155C53.5229 129.876 53.4763 128.323 53.5074 125.497L53.6471 119.022C52.9328 120.761 52.467 123.307 52.2496 126.661L51.9701 131.553C51.7838 131.863 48.5541 132.903 42.2811 134.674C36.008 136.413 32.8094 137.189 32.6852 137.003C32.592 136.816 32.5299 135.528 32.4988 133.136L32.592 128.385L30.2629 135C29.4865 137.267 28.9897 138.462 28.7723 138.586L21.1794 140.17L13.9592 141.148L16.4746 136.257L20.3409 128.944C19.3161 129.627 15.9933 132.546 10.3724 137.701C5.18621 142.453 2.48445 144.797 2.26707 144.735C1.95652 144.642 1.92547 143.027 2.1739 139.891C2.39129 136.816 2.60867 135.124 2.82605 134.813C3.1366 134.378 6.45946 132.049 12.7946 127.826C11.6766 128.168 9.28544 129.068 5.62098 130.528C2.57762 131.739 1.00935 132.282 0.916188 132.158C0.791969 131.941 1.8323 129.845 4.03719 125.87C6.21102 121.863 7.49979 119.721 7.9035 119.441C8.18299 119.224 9.68915 118.665 12.422 117.764L19.9217 115.249L13.7263 115.808L10.2792 115.901C10.155 115.59 11.2264 113.82 13.4934 110.591C15.8846 107.144 17.6081 105.234 18.664 104.861C19.9683 104.333 25.2941 103.712 34.6416 102.998C33.8652 102.687 31.8622 102.113 28.6325 101.274C26.0239 100.622 24.7196 100.187 24.7196 99.9699C24.7196 99.6904 26.6761 98.0289 30.589 94.9856C34.4708 91.9733 36.6291 90.4361 37.0639 90.374L40.6973 90.8398L46.9859 92.0509L42.5606 90.2808C40.9768 89.6597 40.2936 89.3181 40.511 89.256L46.8461 85.9021C50.8832 83.7282 53.0571 82.5948 53.3676 82.5016C53.6782 82.3774 55.1843 82.7966 57.8861 83.7593L65.6653 86.5076L61.4263 84.3649C59.8425 83.5885 59.2525 83.0916 59.6562 82.8742C60.1531 82.5948 62.7772 82.0202 67.5286 81.1507L75.2612 79.9396C75.8512 80.0327 79.0033 82.2066 84.7174 86.4611Z" fill="#0D131A"/>
<path d="M83.2732 80.2188L97.9931 86.9266L138.566 102.019C134.746 106.646 131.051 110.87 127.48 114.689C121.113 121.459 116.486 125.481 113.598 126.754C110.058 125.543 103.319 124.891 93.3815 124.798C87.6674 124.736 82.0155 124.829 76.4256 125.077L71.7208 110.404C71.2861 109.069 70.9445 108.416 70.696 108.447C70.4165 108.447 70.3389 109.177 70.4631 110.637C71.1463 117.065 71.5345 122.562 71.6277 127.127L54.9047 128.711C55.3705 121.661 55.3705 117.034 54.9047 114.829C54.6252 113.37 53.8178 115.28 52.4824 120.559C51.1781 125.652 50.5105 128.913 50.4794 130.341L33.7099 135.092L33.6633 133.276C33.6633 131.94 33.772 130.372 33.9893 128.571C34.2378 126.708 34.362 125.031 34.362 123.54C34.3931 121.397 34.3309 120.341 34.1757 120.373C34.0825 120.404 33.7254 121.351 33.1043 123.214L27.8405 137.422L16.3813 139.425L22.3438 127.686L23.6947 126.149C24.2226 125.372 23.5084 125.59 21.5519 126.801C19.3781 128.167 17.1732 129.798 14.9373 131.692L7.0649 138.772L3.57124 141.987C3.63335 140.465 3.80415 138.213 4.08364 135.232L16.9403 126.568L18.3378 125.636C18.8967 125.077 18.2601 125 16.4279 125.403C12.8255 126.18 8.44683 127.577 3.29175 129.596C4.59605 127.049 6.41275 124.037 8.74185 120.559C17.2198 117.484 22.5767 115.606 24.8127 114.922C26.5517 114.394 27.4368 114.037 27.4679 113.851L24.5332 113.665L12.6547 114.457C13.8348 112.469 14.9839 110.714 16.1018 109.193C17.4682 107.361 18.462 106.32 19.0831 106.072L28.12 104.907L37.483 104.115L39.5792 103.836C39.7034 103.743 39.0668 103.417 37.6693 102.858C32.9801 100.901 29.533 99.6435 27.3281 99.0845L33.0111 94.7524L37.5762 91.5848L43.9579 92.8425L52.4358 94.3797L55.1842 94.566C55.2774 94.4418 54.4855 93.976 52.8085 93.1686L43.4921 89.1159L53.4607 83.8987L73.3512 90.2339C74.5934 90.4513 73.8636 89.8147 71.1618 88.324L65.5254 85.0633L63.1963 83.5261L74.9816 81.2901L87.7916 90.1873L83.2732 80.2188Z" fill="#00A63C"/>
<path d="M87.7916 90.1873L83.2732 80.2188L97.9931 86.9266L138.566 102.019C134.746 106.646 131.051 110.87 127.48 114.689C121.113 121.459 116.486 125.481 113.598 126.754C111.362 125.978 107.837 125.434 103.024 125.124C103.366 119.037 102.589 114.099 100.695 110.311C98.3347 105.497 94.1112 102.159 88.0245 100.296C88.0245 97.656 87.2016 94.9232 85.5557 92.0972C84.3445 90.0786 82.4036 87.5787 79.7329 84.5975L87.7916 90.1873Z" fill="#009233"/>
<path d="M247.801 63.5891C251.372 65.4213 253.189 66.4617 253.251 66.7101C253.313 66.8964 251.543 67.6573 247.941 68.9926L239.416 72.1136L247.615 72.0671L251.714 72.4397C251.807 72.595 250.534 73.9769 247.894 76.5855L243.469 80.6847L237.739 79.9394L228.516 78.4488L236.621 81.8027C239.727 83.076 241.295 83.7747 241.326 83.8989L235.271 88.9298C231.171 92.0974 228.982 93.6501 228.702 93.588L222.134 89.4422C217.569 86.6162 214.169 84.815 211.933 84.0387C220.131 89.5664 224.153 92.5321 223.998 92.9358C223.905 93.2153 221.684 94.3022 217.336 96.1966C213.082 98.0288 210.768 98.9604 210.396 98.9915L203.269 94.3799C198.145 91.057 194.325 88.9919 191.809 88.1845C193.611 89.7061 196.343 92.4234 200.008 96.3363C203.641 100.218 205.38 102.268 205.225 102.485C205.039 102.703 204.107 103.106 202.43 103.696L199.449 104.488L196.188 101.46C193.983 99.3797 192.322 98.0909 191.204 97.594L195.163 102.159C197.058 104.302 197.974 105.435 197.912 105.56C197.787 105.808 196.39 106.802 193.719 108.541C190.955 110.342 189.449 111.18 189.201 111.056L185.428 107.423C182.819 104.97 180.676 103.386 178.999 102.671L183.285 108.215C185.645 111.041 186.763 112.5 186.639 112.593L168.751 118.323L135.725 107.237L148.581 76.0265L148.674 75.9334C150.382 74.2254 154.715 71.4304 161.671 67.5486C168.441 63.791 171.981 62.0674 172.292 62.378C172.509 62.5954 172.136 64.086 171.174 66.8499L169.031 73.0919L172.338 65.6387C173.332 63.2786 173.953 62.0053 174.201 61.819C174.667 61.5085 177.245 60.6855 181.934 59.3502C186.654 58.0148 189.03 57.4869 189.061 57.7664L187.244 61.6793C185.785 64.4742 184.853 66.4306 184.449 67.5486L188.595 61.2134C190.117 58.9154 191.002 57.6887 191.25 57.5334C191.592 57.3161 193.316 56.99 196.421 56.5552L201.172 56.0894L197.539 64.4276L202.058 59.257L205.039 56.0428L210.675 55.7167C214.153 55.5925 215.954 55.6081 216.079 55.7633C216.203 55.9186 215.986 56.8658 215.427 58.6048L213.796 62.8438C218.951 58.5583 222.321 56.0273 223.905 55.2509L223.998 55.2043H224.137C225.473 55.2043 228.206 55.7323 232.336 56.7881C236.311 57.7819 238.298 58.3875 238.298 58.6048L236.016 61.4929L232.196 65.8716L237.926 62.7506C240.224 61.5085 241.528 60.8718 241.839 60.8408C242.242 60.8097 244.23 61.7258 247.801 63.5891Z" fill="#0D131A"/>
<path d="M233.081 63.2628C231.28 65.4987 230.053 66.8807 229.401 67.4086C228.532 68.1229 228.097 68.5576 228.097 68.7129C228.128 68.9303 228.811 68.7905 230.147 68.2937C232.01 67.5484 235.907 65.4987 241.839 62.1448L250.41 66.5701L243.609 69.2719C239.851 70.7315 237.398 71.601 236.249 71.8805L233.035 72.5792C232.507 72.7345 232.942 72.8587 234.339 72.9519L249.106 73.4177L243.096 79.1007L235.504 78.1691L224.231 76.6319C221.995 76.3524 221.265 76.4455 222.041 76.9114L223.905 77.7033C233.749 81.7404 238.764 83.8987 238.951 84.1782C239.075 84.3645 237.444 85.6998 234.06 88.1842L228.749 91.771C217.104 85.4359 210.442 82.1907 208.765 82.0354L206.576 81.8956C206.483 81.9888 207.104 82.3925 208.439 83.1068L216.079 88.1376C219.712 90.6841 221.544 92.1126 221.576 92.4232C221.607 92.6406 219.992 93.479 216.731 94.9386L210.489 97.6404C200.986 90.7462 194.123 87.0197 189.9 86.4607C187.167 86.1191 186.064 86.1191 186.592 86.4607L189.294 87.6718C190.133 88.1997 192.105 89.9854 195.21 93.0288C198.688 96.4448 201.328 99.3173 203.129 101.646C202.104 101.926 200.971 102.376 199.729 102.997C199.076 102.283 197.57 101.087 195.21 99.4105C192.819 97.7025 191.064 96.569 189.946 96.01C188.921 95.5131 188.425 95.3423 188.456 95.4976L189.341 96.8019L192.462 100.855L196.142 105.326L189.434 109.565L184.636 105.42C181.965 103.308 179.869 101.895 178.347 101.181C177.291 100.684 176.748 100.528 176.717 100.715L177.416 102.252C177.788 103.028 178.798 104.55 180.444 106.817L184.589 112.034L168.751 117.112L137.262 106.538L149.56 76.6784C151.765 74.5357 158.705 70.5141 170.382 64.6137L168.519 71.4147L166.748 77.4703C166.252 78.8678 166.05 79.6908 166.143 79.9392C166.267 80.2187 166.826 79.4889 167.82 77.7498L172.105 69.3185L175.18 62.5175L186.686 59.2102C185.381 61.5703 183.797 65.6074 181.934 71.3215C181.282 73.2158 180.987 74.2251 181.049 74.3493L182.959 71.7873C184.574 69.2098 187.571 64.8155 191.949 58.6046L199.822 57.4866C198.3 59.6294 196.809 62.797 195.35 66.9894C194.884 68.3558 194.713 69.0545 194.837 69.0856L196.328 67.5949L205.598 57.2071L214.961 56.9276L213.47 60.4213L211.374 64.8932L210.536 66.9894L212.259 65.6385L218.035 60.9337C221.017 58.5114 223.097 56.9897 224.277 56.3687C225.923 56.4308 229.914 57.3779 236.249 59.2102L233.081 63.2628Z" fill="#00A63C"/>
<path d="M157.339 71.5078C160.91 77.0356 163.441 81.6782 164.932 85.4359C174.807 85.7464 182.493 87.6407 187.99 91.1189C189.791 92.2368 192.011 93.9604 194.651 96.2895L201.685 102.159L199.729 102.997C199.076 102.283 197.57 101.087 195.21 99.4105C192.819 97.7025 191.064 96.569 189.946 96.01C188.921 95.5131 188.425 95.3423 188.456 95.4976L189.341 96.8019L192.462 100.855L196.142 105.326L189.434 109.565L184.636 105.42C181.965 103.308 179.869 101.895 178.347 101.181C177.291 100.684 176.748 100.528 176.717 100.715L177.416 102.252C177.788 103.028 178.798 104.55 180.444 106.817L184.589 112.034L168.751 117.112L137.262 106.538L149.56 76.6784C150.615 75.6847 153.209 73.9611 157.339 71.5078Z" fill="#009233"/>
<path d="M107.263 107.703L97.9467 107.516C92.6674 107.392 90.2296 107.159 90.6333 106.818L99.577 99.97L85.2298 95.4515L83.2733 94.6596L85.4161 94.287L107.263 95.4515L127.154 107.377L114.017 111.289C105.322 113.805 101.114 114.845 101.394 114.41L104.328 111.103L107.263 107.703Z" fill="#0D131A"/>
<path d="M101.161 100.203L102.325 99.504L101.161 98.7587C100.509 98.4481 98.428 97.8736 94.9189 97.0351L89.9346 95.7308L98.3193 96.0103L106.937 96.6159L124.172 106.957C112.775 110.404 106.813 111.972 106.285 111.662C106.036 111.507 106.487 110.699 107.636 109.24C108.816 107.718 109.344 106.848 109.22 106.631L101.534 106.072L93.8475 105.793C93.6922 105.699 94.7015 104.845 96.8753 103.231L101.161 100.203Z" fill="#00A63C"/>
<path d="M135.632 4.80261C137.371 4.1194 138.364 4.10388 138.613 4.75602C138.706 5.06657 138.566 5.74978 138.194 6.80564C137.542 8.91736 137.2 10.6564 137.169 12.0228L140.057 9.22791C141.237 8.10993 142.138 7.44226 142.759 7.22488L144.575 7.13171C144.948 7.38015 144.948 7.90808 144.575 8.7155C143.768 10.4546 143.318 12.7837 143.225 15.7028C143.1 19.9884 144.172 23.4976 146.439 26.2304L146.904 26.8359L146.252 27.2086C142.215 29.4445 138.085 31.4165 133.862 33.1245L128.691 34.9878L128.179 35.1275L118.07 16.6345L120.958 10.9049C123.07 6.86775 124.545 4.24362 125.384 3.03249C126.408 1.60397 127.231 0.905239 127.852 0.936294C128.474 0.998403 128.706 1.72819 128.551 3.12565C128.303 6.0448 128.256 8.01677 128.411 9.04158L131.486 6.99196C132.976 6.02927 134.358 5.29948 135.632 4.80261Z" fill="#0D131A"/>
<path d="M141.687 15.5631C141.687 19.8487 142.774 23.4821 144.948 26.4633C139.172 29.662 133.799 32.0377 128.831 33.5904L119.561 16.6811C124.126 8.14105 126.424 4.27473 126.455 5.08216L126.408 7.87708C126.408 9.24349 126.502 10.1441 126.688 10.5788L127.107 11.5105L128.272 10.6254C129.017 9.97327 130.539 9.04163 132.837 7.8305C135.197 6.58831 136.346 6.15354 136.284 6.5262L135.771 9.50745L135.399 13.0477C135.399 14.8489 135.911 15.1594 136.936 13.9793C137.526 13.2961 138.644 12.2713 140.29 10.9049C141.936 9.53851 142.666 9.02611 142.479 9.36771C142.293 9.74036 142.122 10.5478 141.967 11.79C141.78 13.1253 141.687 14.383 141.687 15.5631Z" fill="#39BADF"/>
<path d="M119.468 15.9356C120.182 15.6872 120.694 15.7959 121.005 16.2617L123.52 19.7088C125.073 22.4727 125.849 25.3608 125.849 28.3731C125.849 30.9196 125.321 33.3884 124.266 35.7796C123.52 37.4876 122.651 40.562 121.657 45.0029L118.815 58.7446C116.486 70.7317 114.654 79.1475 113.319 83.9921C111.114 92.0042 108.909 96.5848 106.704 97.7338L104.235 97.7804L101.999 96.7556C96.5647 94.3022 92.7294 91.88 90.4935 89.4888C86.798 85.4206 84.5931 79.4426 83.8789 71.5547C83.1646 63.5736 88.1644 52.2852 98.8783 37.6895C102.915 32.1617 107.015 27.224 111.176 22.8764C115.151 18.7461 117.915 16.4325 119.468 15.9356Z" fill="#0D131A"/>
<path d="M120.446 44.4437L117.558 58.5114C115.353 69.7533 113.614 77.812 112.341 82.6876C110.136 90.9481 108.055 95.5753 106.099 96.569C105.664 96.7864 105.229 96.7864 104.794 96.569L102.512 95.5442C97.2945 93.2462 93.6301 90.9326 91.5183 88.6035C87.9781 84.7216 85.8664 78.992 85.1832 71.4147L85.1366 70.1104C85.1366 63.7442 88.6458 55.1886 95.6641 44.4437C101.409 35.6862 107.512 28.1555 113.971 21.8513C115.648 20.2054 117.076 18.9633 118.256 18.1248L120.027 17.1L120.073 17.1466L122.402 20.3141C123.862 22.8296 124.592 25.4848 124.592 28.2797C124.592 30.5777 124.079 32.9068 123.054 35.267C122.278 37.0061 121.409 40.0649 120.446 44.4437Z" fill="#0D131A"/>
<path d="M158.596 38.9475C172.416 58.543 171.391 76.8187 155.522 93.7746C151.33 98.2775 146.066 101.476 139.731 103.371C134.513 104.954 129.188 105.529 123.753 105.094C118.908 104.69 113.924 103.479 108.8 101.461C104.484 99.7837 101.782 98.3397 100.695 97.1285C92.248 93.5883 85.478 88.5108 80.3851 81.8962C76.0374 76.2442 73.5375 70.4525 72.8853 64.5211C71.8295 55.1736 75.8977 45.6087 85.0899 35.8265C90.1828 30.3298 95.8658 25.6405 102.139 21.7587C105.213 19.8644 107.589 17.7837 109.266 15.5167C110.726 13.4982 111.455 11.6193 111.455 9.88028L111.362 7.31826C111.238 6.72822 110.958 6.13818 110.524 5.54814C110.027 4.86494 109.934 4.41465 110.244 4.19726C110.586 3.97988 111.285 4.11963 112.34 4.6165C113.893 5.33076 115.151 6.38662 116.114 7.78408L118.07 11.3243L118.815 8.48281C119.25 7.24063 119.747 6.91455 120.306 7.50459C121.3 8.56045 122.387 12.5976 123.567 19.6159L124.265 16.4949C124.421 16.0602 125.026 16.6657 126.082 18.3116C127.976 21.3239 129.25 23.5754 129.902 25.066C130.74 22.5817 132.076 19.8799 133.908 16.9608C134.653 15.7807 135.259 15.1596 135.725 15.0975C136.159 15.0664 136.346 15.5788 136.284 16.6347C136.221 18.2185 136.532 20.1439 137.215 22.4109C137.712 21.0755 138.551 19.5849 139.731 17.939C140.849 16.3862 141.951 15.1285 143.038 14.1658C144.125 13.2031 145.15 12.6752 146.112 12.582C147.075 12.4578 147.355 12.8305 146.951 13.7L145.833 16.4018C145.491 17.5508 145.274 18.9327 145.181 20.5476C146.237 19.088 147.137 18.0166 147.882 17.3334C148.41 16.8365 149.295 16.1689 150.538 15.3304C153.364 13.405 154.357 13.4516 153.519 15.4701C151.594 19.8799 150.833 23.2338 151.236 25.5319C151.764 28.2957 154.218 32.7676 158.596 38.9475Z" fill="#0D131A"/>
<path d="M114.623 31.2613C108.381 37.0375 104.142 41.028 101.906 43.2329C92.6827 52.2698 88.1643 62.021 88.3506 72.4864C88.4438 77.9521 89.5617 82.719 91.7045 86.7871C92.6672 88.5262 94.1889 90.5603 96.2696 92.8894C82.3881 83.7904 75.4008 73.7131 75.3076 62.6576V62.4713C75.3076 54.2728 79.1118 45.8415 86.7202 37.1772C92.1238 31.0284 97.931 26.1217 104.142 22.4573C109.608 19.2276 112.682 15.5321 113.365 11.3707L113.458 8.15658C113.458 7.38021 113.583 7.13178 113.831 7.41127C115.042 8.77768 116.036 10.1286 116.812 11.4639C117.123 11.9608 117.464 12.8614 117.837 14.1657C118.054 14.942 118.241 15.1128 118.396 14.6781L118.955 11.79C119.203 10.5478 119.452 10.0509 119.7 10.2994C120.415 11.0136 121.238 13.4669 122.169 17.6593L122.309 19.1034C122.309 21.9915 119.747 26.0441 114.623 31.2613Z" fill="#39BADF"/>
<path d="M115.229 37.2701C107.9 45.0337 103.35 50.1733 101.58 52.6887C96.3628 60.0798 93.7542 67.5018 93.7542 74.955C93.7542 79.4579 95.4312 85.5912 98.7851 93.3549C96.6113 91.7711 94.4374 88.4016 92.2636 83.2466C91.0214 80.2964 90.4624 77.0977 90.5866 73.6507C90.804 68.3714 91.953 63.325 94.0337 58.5115C95.9591 54.0396 98.5832 49.9714 101.906 46.307C104.049 43.9779 108.055 40.065 113.924 34.5683C118.955 29.4132 122.014 24.9258 123.101 21.1061C123.38 22.3172 123.256 23.8234 122.728 25.6245C121.672 29.1958 119.173 33.0777 115.229 37.2701Z" fill="#39BADF"/>
<path d="M154.031 92.7498C150.056 96.9732 144.995 99.8458 138.846 101.367C134.187 102.548 129.063 102.905 123.474 102.439C118.256 102.004 113.21 100.979 108.334 99.3644C104.39 98.0291 102.155 96.9888 101.627 96.2434L101.766 96.29L100.881 94.6596C97.4963 88.4176 95.8038 82.2222 95.8038 76.0734C95.8038 68.6824 98.2416 61.2292 103.117 53.714C105.85 49.4905 110.198 44.3044 116.16 38.1556C117.775 36.4476 119.747 33.6837 122.076 29.864C124.84 25.2368 125.942 22.1934 125.383 20.7339C125.911 21.2618 126.564 22.209 127.34 23.5754C128.209 25.0971 128.986 26.2461 129.669 27.0225C130.57 28.0473 131.113 28.4044 131.299 28.0938L131.439 26.0908C131.47 25.2523 131.889 24.0723 132.697 22.5506C133.38 21.1531 134.203 19.7867 135.166 18.4513C135.445 21.1842 135.989 23.2804 136.796 24.7399L137.588 25.7182L138.007 24.4139C138.473 23.2027 139.172 21.7742 140.103 20.1283C141.47 17.7992 142.728 16.1378 143.877 15.144L145.088 14.3055C144.715 15.1751 144.42 16.3862 144.203 17.9389C143.954 19.3985 143.83 20.7805 143.83 22.0848C143.861 23.2338 143.985 23.7772 144.203 23.7151L144.948 22.5506C145.258 21.9295 146.206 20.9357 147.789 19.5693C149.373 18.2029 150.087 17.7837 149.932 18.3116C149.342 20.6718 149.047 22.4419 149.047 23.622C149.047 25.5163 149.606 27.628 150.724 29.9571C151.873 32.2862 153.907 35.5004 156.826 39.5996C159.373 43.1709 161.36 47.1149 162.789 51.4315C164.279 55.9655 165.025 60.5616 165.025 65.2198C165.025 70.1264 164.171 74.8312 162.463 79.3341C160.6 84.2408 157.789 88.7127 154.031 92.7498Z" fill="#39BADF"/>
<path d="M96.2698 92.8892C90.742 89.2248 86.3168 85.4361 82.9939 81.5232C84.5777 82.0822 86.9844 82.7033 90.2141 83.3865C91.0526 85.6845 92.155 87.7807 93.5215 89.6751L96.2698 92.8892Z" fill="#39BADF"/>
<path d="M164 56.0431C164.683 59.1796 165.025 62.2385 165.025 65.2198C165.025 70.1264 164.171 74.8312 162.463 79.3341C160.6 84.2408 157.789 88.7127 154.031 92.7498C150.056 96.9732 144.995 99.8458 138.846 101.367C134.188 102.548 129.063 102.905 123.474 102.439C118.256 102.004 113.21 100.979 108.334 99.3644C104.391 98.0291 102.155 96.9887 101.627 96.2434L101.766 96.29L100.881 94.6596C99.1112 91.3678 97.8224 88.1847 97.015 85.1103C111.145 89.0232 124.778 88.4176 137.914 83.2936C151.92 77.7969 160.615 68.7134 164 56.0431Z" fill="#39BADF"/>
<path d="M199.915 121.351C200.629 121.848 200.598 125.28 199.822 131.646C198.983 138.447 197.601 145.543 195.676 152.934C196.359 156.35 196.297 161.086 195.49 167.141C194.651 173.29 193.347 178.461 191.577 182.653C189.9 186.659 187.384 190.246 184.03 193.414C181.266 196.053 176.857 199.345 170.801 203.289C164.621 207.295 156.066 209.453 145.134 209.764C132.868 210.106 121.952 207.699 112.387 202.544C99.81 195.774 92.2326 186.892 89.6551 175.899C88.1955 173.911 87.6676 171.846 88.0713 169.703C88.3818 168.151 89.1582 166.676 90.4004 165.278C89.9346 162.949 90.3227 159.424 91.5649 154.704L93.5214 148.322L92.3568 146.226C91.5805 144.611 91.2699 143.276 91.4252 142.22C90.742 140.512 90.0432 136.941 89.329 131.506C88.5526 125.637 88.4594 122.05 89.0495 120.746C90.4159 119.721 94.3133 119.255 100.742 119.348L112.387 120.187C113.257 119.441 115.632 118.261 119.514 116.646C124.11 114.721 127.837 113.588 130.694 113.246C137.495 112.439 143.659 112.765 149.187 114.224C154.342 115.622 159.109 118.059 163.488 121.538C170.848 118.743 178.922 117.764 187.71 118.603C194.201 119.224 198.269 120.14 199.915 121.351Z" fill="#5DC1CF"/>
<path d="M119.514 116.646C124.11 114.721 127.837 113.588 130.694 113.246C141.594 111.973 150.91 113.634 158.643 118.23C154.295 120.963 150.103 124.27 146.066 128.152C143.426 130.668 139.808 134.534 135.212 139.751C125.585 127.64 115.384 123.541 104.608 127.454C104.484 125.404 103.769 123.587 102.465 122.003C101.161 120.42 99.6701 119.55 97.9932 119.395L106.704 119.628L112.387 120.187C113.257 119.441 115.632 118.261 119.514 116.646Z" fill="#50A8B4"/>
<path d="M92.0773 178.461C92.0773 178.212 93.2574 178.212 95.6175 178.461C98.0398 178.709 99.6702 179.129 100.509 179.719L99.9496 182.793L99.018 185.681C98.6143 186.768 98.1795 187.343 97.7137 187.405C96.9373 187.498 95.8349 186.457 94.4064 184.284C92.9779 182.017 92.2015 180.076 92.0773 178.461Z" fill="#0D131A"/>
<path d="M99.4839 180.231L98.6454 182.42C98.0243 184.252 97.574 185.184 97.2945 185.215C97.0771 185.215 96.72 184.92 96.2231 184.33L94.453 181.861C93.5214 180.308 93.0555 179.19 93.0555 178.507V178.367L95.7107 178.647C97.1703 179.082 98.428 179.609 99.4839 180.231Z" fill="white"/>
<path d="M199.915 121.351C200.629 121.848 200.598 125.279 199.822 131.646C198.983 138.447 197.601 145.543 195.676 152.934C196.359 156.35 196.297 161.085 195.49 167.141C194.651 173.29 193.347 178.461 191.577 182.653C189.807 186.845 186.686 191.146 182.214 195.556C177.804 199.904 174 202.481 170.801 203.289C174.497 201.363 177.757 198.398 180.583 194.392C183.596 190.168 185.738 185.324 187.012 179.858C190.055 166.846 187.773 153.399 180.164 139.518C178.083 135.667 177.043 133.447 177.043 132.857C177.043 132.515 177.913 131.739 179.652 130.528C184.186 127.329 188.828 124.829 193.58 123.028C197.368 121.568 199.48 121.009 199.915 121.351Z" fill="#50A8B4"/>
<path d="M172.804 190.059L171.22 191.829C170.63 192.482 170.118 192.73 169.683 192.575C169.342 192.451 168.907 191.985 168.379 191.177L165.491 186.379L166.05 185.634L176.344 184.796L172.804 190.059Z" fill="#0D131A"/>
<path d="M166.935 186.426C170.258 185.556 172.742 185.199 174.388 185.355C171.81 189.267 170.366 191.162 170.056 191.038L168.658 189.128L166.935 186.426Z" fill="white"/>
<path d="M201.312 119.767C202.151 120.388 202.228 124.177 201.545 131.133C200.707 139.208 198.968 146.8 196.328 153.912C198.005 160.806 197.788 168.042 195.676 175.619C193.564 183.228 190.101 189.128 185.288 193.32C188.58 187.141 190.955 182.001 192.415 177.902C194.092 173.15 195.008 168.585 195.163 164.207C195.226 161.909 195.024 159.284 194.558 156.334C194.154 153.881 193.781 152.251 193.44 151.443C193.191 150.822 193.145 150.418 193.3 150.232C193.455 150.046 193.735 150.123 194.139 150.465L195.396 151.769C197.415 144.006 198.766 137.049 199.449 130.9C200.039 125.745 200.055 122.718 199.496 121.817C197.663 120.699 193.704 119.845 187.617 119.255C178.953 118.416 170.987 119.379 163.721 122.143L163.348 122.236L163.068 122.05C158.69 118.572 153.845 116.289 148.535 115.202C143.504 114.177 137.635 114.146 130.927 115.109C126.765 115.73 122.294 117.205 117.511 119.534C114.25 121.118 111.409 122.795 108.987 124.565C107.558 125.59 106.72 126.009 106.471 125.823C106.223 125.699 106.456 125.233 107.17 124.426L109.592 122.096L111.083 120.792L100.089 119.954C94.2511 119.829 90.6643 120.202 89.3289 121.072C88.7699 121.6 88.6612 123.509 89.0028 126.801C89.4066 130.652 90.3537 135.093 91.8443 140.124L92.3102 139.704C90.8506 131.04 90.1829 125.683 90.3071 123.634C90.3382 123.106 90.5866 122.78 91.0524 122.655C91.953 122.624 93.4281 124.379 95.4777 127.919C97.4653 131.366 98.5832 133.99 98.8317 135.792L99.3441 135.512L101.207 135.233C102.108 135.233 102.543 135.434 102.512 135.838C102.45 136.242 101.968 136.552 101.068 136.77C100.105 137.018 98.6453 137.701 96.6889 138.819C94.4529 140.093 92.8691 141.273 91.9375 142.36C91.3475 143.074 91.3009 144.58 91.7978 146.878L92.7294 150.092C91.6425 152.421 90.9593 155.729 90.6798 160.014C90.5245 162.126 90.4779 164.02 90.54 165.697C88.7389 167.933 88.1954 170.324 88.9097 172.871C89.6239 175.417 91.2232 176.877 93.7076 177.25C95.6641 177.529 98.723 178.492 102.884 180.138C108.164 182.187 112.356 184.392 115.461 186.752L115.601 186.846L115.648 186.939C116.673 188.771 118.272 190.51 120.446 192.156C122.713 193.864 124.56 194.64 125.989 194.485C127.666 194.33 131.284 192.994 136.843 190.479H136.889C145.491 188.212 156.019 186.349 168.472 184.889L175.832 183.957C176.888 183.864 177.928 183.476 178.953 182.793L180.956 181.209C181.515 180.774 181.903 180.666 182.12 180.883C182.369 181.1 182.291 181.52 181.888 182.141L180.397 183.864C179.621 184.485 178.44 185.013 176.857 185.448L174.528 185.774L170.242 186.24C155.957 187.917 145.274 189.687 138.194 191.55C132.014 194.718 128.023 196.395 126.222 196.581C124.514 196.768 122.371 195.774 119.794 193.6C117.496 191.706 115.772 189.749 114.623 187.731C111.642 185.526 107.713 183.538 102.838 181.768C99.2664 180.464 96.4404 179.656 94.3598 179.346C92.9313 179.097 91.7978 178.709 90.9593 178.181C93.9405 187.87 101.176 195.805 112.667 201.985C121.331 206.643 130.539 208.925 140.29 208.832C149.42 208.739 159.606 206.55 170.848 202.264C172.649 201.581 173.72 201.333 174.062 201.519C174.403 201.705 173.456 202.326 171.22 203.382C160.786 208.289 150.538 210.773 140.476 210.835C130.414 210.897 120.958 208.553 112.108 203.801C99.5304 197.031 91.922 188.088 89.2823 176.97C87.419 175.976 86.4874 174.191 86.4874 171.613C86.4563 169.129 87.2948 166.939 89.0028 165.045C88.9097 159.269 89.686 154.331 91.3319 150.232C90.4935 148.897 90.0121 147.359 89.8879 145.62C89.7326 143.912 89.9811 142.593 90.6332 141.661C88.6457 136.288 87.4812 131.18 87.1396 126.335C86.8601 122.143 87.1861 119.736 88.1178 119.115C89.95 117.966 94.0803 117.625 100.509 118.09L112.247 119.488C113.645 118.525 116.191 117.298 119.887 115.808C124.297 114.007 127.883 112.935 130.647 112.594C137.386 111.786 143.411 112.004 148.721 113.246C154.156 114.519 159.14 116.926 163.674 120.466C171.065 117.733 179.263 116.662 188.269 117.252C195.226 117.718 199.573 118.556 201.312 119.767Z" fill="#0D131A"/>
<path d="M91.2854 124.053V123.82C92.0307 124.565 93.1487 126.444 94.6393 129.456C96.2231 132.624 97.1858 135.077 97.5274 136.816C96.192 137.22 94.7791 138.043 93.2884 139.285L92.0773 131.785C91.5494 127.997 91.2854 125.419 91.2854 124.053Z" fill="#431E37"/>
<path d="M96.5026 146.971C97.341 147.281 97.9621 147.592 98.3658 147.903C100.757 149.766 103.583 153.787 106.844 159.967C109.732 165.557 111.766 170.371 112.946 174.408L113.552 176.83C113.583 177.42 113.443 177.7 113.132 177.668L112.387 177.156L112.154 176.69C109.949 177.249 106.58 176.349 102.046 173.988C98.3814 172.125 95.338 170.153 92.9157 168.073C92.3568 167.886 92.0152 167.56 91.8909 167.094C91.8288 166.815 91.9065 166.566 92.1239 166.349L92.4965 166.116C91.8754 162.576 91.9841 158.989 92.8226 155.356C93.63 152.033 94.6703 149.906 95.9436 148.974L94.7324 147.716C94.5151 147.281 94.5151 146.971 94.7324 146.785L96.5026 146.971Z" fill="#0D131A"/>
<path d="M93.5214 162.949C93.5214 159.905 94.0027 156.909 94.9654 153.958C95.8039 151.412 96.5492 149.968 97.2013 149.626C98.692 150.092 101.068 153.399 104.328 159.548C107.527 165.542 109.81 170.868 111.176 175.526C109.188 175.681 106.254 174.75 102.372 172.731C99.0802 170.992 96.2542 169.16 93.894 167.234C93.6456 165.682 93.5214 164.253 93.5214 162.949Z" fill="white"/>
<path d="M101.58 153.912L102.419 153.865C104.344 156.909 106.3 160.604 108.288 164.952C110.275 169.331 111.673 172.995 112.48 175.945L112.62 176.411L108.335 175.945C105.105 175.386 102.589 174.455 100.788 173.15L100.648 173.104L100.555 172.917C99.1268 169.005 98.397 165.744 98.366 163.135C98.3038 159.657 99.3752 156.583 101.58 153.912Z" fill="#0D131A"/>
<path d="M99.9497 164.16C99.9497 160.899 100.648 157.903 102.046 155.17C103.847 158.089 105.648 161.52 107.449 165.464C109.251 169.439 110.555 172.84 111.362 175.666C109.157 175.914 105.85 174.827 101.44 172.405C100.447 169.734 99.9497 166.986 99.9497 164.16Z" fill="#91308C"/>
<path d="M178.534 147.716C179.434 147.592 179.869 147.779 179.838 148.275C179.807 148.741 179.558 149.098 179.093 149.347L177.229 150.139C179.155 151.567 180.288 154.812 180.63 159.874C180.909 164.47 180.537 167.995 179.512 170.449C180.816 170.511 181.406 170.759 181.282 171.194L180.49 171.893L178.021 172.498L149.699 178.414L148.628 178.833C147.976 178.895 147.758 178.43 147.976 177.436C148.783 173.523 150.274 169.874 152.448 166.489C154.528 163.166 157.494 159.735 161.345 156.194C166.562 151.443 172.292 148.617 178.534 147.716Z" fill="#0D131A"/>
<path d="M162.044 158.849C164.59 156.52 167.152 154.564 169.73 152.98C172.09 151.552 174.077 150.667 175.692 150.325C176.624 151.443 177.354 153.508 177.882 156.52C178.378 159.222 178.627 162.064 178.627 165.045C178.627 167.716 178.425 169.657 178.021 170.868C174.729 171.333 166.562 173.104 153.519 176.178L150.165 176.97C150.476 174.454 151.671 171.613 153.752 168.445C155.833 165.247 158.597 162.048 162.044 158.849Z" fill="white"/>
<path d="M168.006 152.654L168.565 152.281L168.751 152.934C171.671 159.269 172.23 166.023 170.428 173.197L170.335 173.523L170.056 173.569L153.799 177.296L148.907 178.414V177.808C149.063 173.864 151.314 169.253 155.662 163.973C159.357 159.502 163.472 155.728 168.006 152.654Z" fill="#0D131A"/>
<path d="M168.006 153.865C169.404 159.145 170.102 163.617 170.102 167.281C170.102 169.237 169.9 171.039 169.497 172.685L153.566 176.365L149.979 177.203C150.32 173.507 152.494 169.253 156.5 164.439C159.916 160.34 163.752 156.816 168.006 153.865Z" fill="#91308C"/>
<path d="M197.912 124.192L197.213 124.891L196.84 125.124C197.648 126.304 197.508 129.922 196.421 135.978C195.49 141.102 194.682 144.564 193.999 146.365L193.254 147.996L192.741 147.204C192.431 146.428 191.08 144.735 188.689 142.126C185.956 139.207 183.487 137.002 181.282 135.512L180.257 136.211C179.853 136.49 179.589 136.49 179.465 136.211C179.341 135.9 179.558 135.419 180.117 134.767C180.956 133.773 183.254 131.847 187.012 128.99C191.173 125.792 193.937 124.053 195.303 123.773L197.958 123.494C198.176 123.587 198.16 123.82 197.912 124.192Z" fill="#0D131A"/>
<path d="M194.744 136.164C194.185 139.984 193.595 143.151 192.974 145.667C191.949 143.959 190.599 142.142 188.922 140.217C186.903 137.856 184.9 135.978 182.912 134.58C184.9 132.624 186.95 130.854 189.061 129.27C191.701 127.251 193.859 125.994 195.536 125.497L195.676 126.801C195.676 128.882 195.365 132.003 194.744 136.164Z" fill="#431E37"/>
<path d="M112.294 152.561C111.797 151.505 111.673 150.853 111.921 150.604C112.17 150.356 112.62 150.806 113.272 151.955C114.204 153.508 115.027 155.2 115.741 157.033C116.673 159.486 117.201 161.722 117.325 163.74C117.449 165.759 117.371 166.458 117.092 165.837L116.114 162.669L114.437 157.685L112.294 152.561Z" fill="#0D131A"/>
<path d="M154.078 149.161C154.73 148.695 155.134 148.571 155.289 148.788C155.444 149.037 155.274 149.378 154.777 149.813C153.441 151.024 152.184 152.949 151.004 155.589C149.73 158.446 148.737 161.738 148.022 165.464C147.805 166.707 147.557 167.421 147.277 167.607C146.998 167.825 146.889 167.188 146.951 165.697C147.324 157.685 149.699 152.173 154.078 149.161Z" fill="#0D131A"/>
<path d="M117.418 184.703L118.443 184.749C119.002 185.122 119.452 185.603 119.794 186.194L120.539 187.964C120.725 188.523 120.725 188.802 120.539 188.802L119.7 188.243L117.791 185.961C117.418 185.464 117.294 185.044 117.418 184.703Z" fill="#0D131A"/>
<path d="M128.877 189.361C129.157 188.398 130.259 187.482 132.184 186.613C132.743 186.333 133.116 186.38 133.302 186.752C133.52 187.125 133.38 187.482 132.883 187.824L129.716 189.873L128.598 190.339L128.877 189.361Z" fill="#0D131A"/>
<path d="M105.074 160.107L106.751 163.461L108.334 166.908C108.21 168.337 107.962 169.517 107.589 170.449C107.185 171.411 106.735 171.893 106.238 171.893C105.648 171.893 105.136 171.272 104.701 170.029C104.297 168.756 104.095 167.234 104.095 165.464C104.095 163.135 104.422 161.35 105.074 160.107Z" fill="#0D131A"/>
<path d="M159.342 169.331C159.093 170.946 158.628 172.296 157.944 173.383C157.292 174.439 156.625 174.905 155.941 174.781C155.289 174.688 154.808 174.035 154.497 172.824C154.218 171.582 154.202 170.154 154.451 168.539C154.699 166.924 155.165 165.589 155.848 164.533C156.5 163.446 157.168 162.964 157.851 163.089C158.534 163.213 159.016 163.881 159.295 165.092C159.575 166.303 159.59 167.716 159.342 169.331Z" fill="#0D131A"/>
<path d="M158.084 89.2561C162.649 87.0512 169.217 84.3805 177.788 81.244C186.608 77.9832 193.207 75.8715 197.586 74.9088L198.843 75.002C198.905 75.2504 198.548 75.4678 197.772 75.6541C193.828 76.6479 187.105 78.9925 177.602 82.688C168.596 86.1972 161.593 89.1319 156.593 91.492L158.084 89.2561Z" fill="#0D131A"/>
<path d="M216.777 73.4182C209.759 75.0641 199.713 78.2161 186.639 82.8743C171.795 88.1536 160.351 92.8895 152.308 97.0819L152.82 95.4515C160.615 91.3523 171.593 86.8028 185.754 81.8029C199.232 77.0826 209.511 74.0393 216.591 72.6729C217.368 72.5486 217.787 72.5952 217.849 72.8126C217.911 73.061 217.554 73.2629 216.777 73.4182Z" fill="#0D131A"/>
<path d="M184.636 79.2877C185.102 76.2133 185.863 73.3407 186.919 70.67C187.074 70.2042 187.245 70.0023 187.431 70.0644C187.648 70.1265 187.679 70.3905 187.524 70.8563C186.81 73.0612 186.189 75.794 185.661 79.0548L184.636 79.2877Z" fill="#0D131A"/>
<path d="M171.546 84.2719C172.198 80.918 172.882 78.0454 173.596 75.6542C173.751 75.1884 173.922 75.002 174.108 75.0952C174.295 75.1884 174.326 75.4678 174.201 75.9337C173.642 78.0143 173.161 80.5919 172.757 83.6663L171.546 84.2719Z" fill="#0D131A"/>
<path d="M187.85 77.9833C188.067 76.3374 188.363 74.8779 188.735 73.6046C188.828 73.232 188.984 73.0767 189.201 73.1388C189.387 73.2009 189.449 73.4183 189.387 73.7909L188.735 77.7504L187.85 77.9833Z" fill="#0D131A"/>
<path d="M196.188 79.1478L199.542 82.0825C199.822 82.3309 199.884 82.5328 199.728 82.6881L199.076 82.5483L195.024 79.3807L196.188 79.1478Z" fill="#0D131A"/>
<path d="M171.872 87.812L172.851 87.2996C173.937 88.0138 175.319 89.1163 176.996 90.6069L180.769 94.4266C181.049 94.7682 181.111 95.0167 180.956 95.1719C180.769 95.3272 180.537 95.234 180.257 94.8924L176.111 91.1659L171.872 87.812Z" fill="#0D131A"/>
<path d="M179.093 84.9703L180.164 84.5045C182.679 86.3989 184.9 88.5106 186.825 90.8397C187.136 91.1813 187.198 91.4142 187.012 91.5384C186.825 91.6626 186.577 91.5539 186.266 91.2123C184.03 88.9143 181.639 86.8336 179.093 84.9703Z" fill="#0D131A"/>
<path d="M91.8912 91.3057L93.8476 92.5168C88.1957 93.7279 81.1307 95.4204 72.6528 97.5942C62.6221 100.203 55.8211 102.206 52.2498 103.603L50.9921 103.65C50.8989 103.433 51.225 103.169 51.9703 102.858C55.9143 101.243 62.4979 99.1159 71.7211 96.4763C79.9817 94.1472 86.705 92.4236 91.8912 91.3057Z" fill="#0D131A"/>
<path d="M35.4336 112.733L34.2224 112.826C34.1293 112.609 34.4398 112.345 35.1541 112.034C41.2408 109.333 49.7032 106.398 60.5413 103.23C71.2862 100.063 80.8977 97.6871 89.3756 96.1033L91.9842 96.9883C83.6926 98.6032 73.5998 101.072 61.7059 104.395C50.0293 107.656 41.2718 110.435 35.4336 112.733Z" fill="#0D131A"/>
<path d="M61.7058 92.6564C61.302 92.3769 61.1623 92.1595 61.2865 92.0043L62.0784 92.144C64.3765 93.6657 66.6435 95.5756 68.8794 97.8736L67.9012 98.2929C65.6963 95.9948 63.6311 94.116 61.7058 92.6564Z" fill="#0D131A"/>
<path d="M72.3265 96.6624L71.4415 96.9884L68.6465 94.1469C68.2739 93.8053 68.1497 93.5569 68.2739 93.4016C68.3981 93.2463 68.6621 93.324 69.0658 93.6345L72.3265 96.6624Z" fill="#0D131A"/>
<path d="M43.3525 109.333L44.2375 109.006C43.9891 110.404 43.8338 111.817 43.7717 113.245C43.7406 113.711 43.6164 113.96 43.399 113.991C43.2127 113.991 43.104 113.758 43.073 113.292C43.0419 112.267 43.1351 110.947 43.3525 109.333Z" fill="#0D131A"/>
<path d="M64.2212 102.904C64.128 104.519 64.0814 106.351 64.0814 108.401C64.1125 110.885 64.2056 112.656 64.3609 113.711C64.423 114.146 64.3454 114.379 64.128 114.41C63.9106 114.472 63.7553 114.286 63.6622 113.851C63.4137 112.516 63.2274 110.73 63.1032 108.494C63.01 106.196 63.0411 104.411 63.1963 103.137L64.2212 102.904Z" fill="#0D131A"/>
<path d="M60.0288 104.069C59.594 107.33 59.4388 110.466 59.563 113.478C59.594 113.944 59.5009 114.208 59.2835 114.27C59.0972 114.301 58.9729 114.1 58.9108 113.665C58.5692 110.746 58.5848 107.671 58.9574 104.442L60.0288 104.069Z" fill="#0D131A"/>
<path d="M129.855 126.289C131.719 124.487 137.262 124.627 146.485 126.708C155.77 128.788 160.506 131.102 160.693 133.648C160.848 135.915 157.805 139.922 151.563 145.667C145.29 151.443 140.911 154.16 138.426 153.819C136.035 153.477 133.597 149.191 131.113 140.962C128.66 132.763 128.24 127.872 129.855 126.289Z" fill="#008982"/>
<path d="M129.39 133.462C128.799 129.58 128.955 127.189 129.855 126.289C130.756 125.419 132.976 125.077 136.517 125.264C139.808 125.419 143.426 125.978 147.37 126.941C144.513 129.58 140.461 133.85 135.212 139.751C133.038 137.111 131.098 135.015 129.39 133.462Z" fill="#00736D"/>
<path d="M128.877 152.7C129.591 153.974 129.498 156.458 128.598 160.153C127.728 163.725 126.874 165.541 126.036 165.604C125.414 165.666 124.312 164.253 122.728 161.365C121.113 158.383 120.461 156.365 120.772 155.309C121.082 154.253 122.449 153.43 124.871 152.84L128.877 152.7Z" fill="#008982"/>
<path d="M75.0283 168.678L70.8359 168.539C70.3079 168.228 69.5005 167.234 68.4136 165.557C67.2646 163.725 66.7367 162.468 66.8298 161.784C66.923 160.946 67.4975 159.424 68.5534 157.219C69.6403 154.859 70.5874 153.244 71.3949 152.375C72.2644 151.474 74.1121 150.838 76.9381 150.465C79.702 150.092 81.2082 150.216 81.4566 150.838C81.8914 151.893 81.8914 154.673 81.4566 159.176C81.0529 163.834 80.4784 166.52 79.7331 167.234C79.0188 167.949 77.4505 168.43 75.0283 168.678Z" fill="#008982"/>
<path d="M67.2491 145.9C67.1559 146.552 66.4417 147.297 65.1063 148.136C63.8331 148.912 62.948 149.269 62.4511 149.207C61.9232 149.114 61.1779 148.182 60.2152 146.412C59.2214 144.549 58.973 143.4 59.4699 142.965C60.0599 142.437 61.5195 142.593 63.8486 143.431C66.2398 144.301 67.3733 145.124 67.2491 145.9Z" fill="#008982"/>
<path d="M37.0173 184.889L37.0639 180.23L36.3186 173.476C36.0391 170.712 35.8838 168.29 35.8528 166.209C38.3682 165.495 39.9986 165.184 40.7439 165.278C41.2408 165.34 42.3743 166.939 44.1444 170.076C45.9145 173.243 46.7996 175.324 46.7996 176.318C46.7996 177.342 46.1319 179.112 44.7965 181.628C43.4612 184.112 42.483 185.479 41.8619 185.727C41.1166 186.069 39.5017 185.789 37.0173 184.889Z" fill="#008982"/>
<path d="M121.517 212.885C122.138 212.76 124.343 214.251 128.132 217.356C131.921 220.431 133.924 222.372 134.141 223.179C134.358 223.987 134.032 225.586 133.163 227.977C132.324 230.368 131.657 231.688 131.16 231.937C130.694 232.123 129.529 232.123 127.666 231.937L124.266 231.285C123.8 231.036 122.992 230.104 121.843 228.49C120.694 226.844 120.011 225.648 119.794 224.903C119.545 224.095 119.654 221.937 120.12 218.428C120.555 214.826 121.02 212.978 121.517 212.885Z" fill="#008982"/>
<path d="M119.002 234.359C119.53 234.173 120.756 234.515 122.682 235.384C124.638 236.254 125.679 236.999 125.803 237.62C125.927 238.241 125.43 239.25 124.312 240.648C123.256 242.014 122.48 242.76 121.983 242.884L119.794 242.604C118.8 242.294 118.21 241.906 118.024 241.44C117.744 240.694 117.744 239.359 118.024 237.434C118.303 235.508 118.629 234.483 119.002 234.359Z" fill="#008982"/>
<path d="M179.558 219.453C179.279 220.012 177.912 220.447 175.459 220.757C173.006 221.068 171.702 220.928 171.546 220.338C171.391 219.717 171.934 218.475 173.177 216.611C174.419 214.748 175.335 213.832 175.925 213.863C176.515 213.925 177.338 214.748 178.394 216.332C179.419 217.947 179.807 218.987 179.558 219.453Z" fill="#008982"/>
<path d="M187.803 216.798L187.664 217.171L183.937 217.031C183.378 216.472 183.021 214.888 182.866 212.279C182.71 209.857 182.772 208.165 183.052 207.202L183.145 206.829C186.189 206.332 188.813 206.379 191.018 206.969C190.117 210.416 189.046 213.692 187.803 216.798Z" fill="#008982"/>
<path d="M192.601 200.448L191.018 206.969C188.813 206.379 186.189 206.332 183.145 206.829C183.518 205.773 184.108 204.562 184.915 203.196C185.816 201.674 186.499 200.82 186.965 200.634L189.387 200.354L192.601 200.448Z" fill="#00736D"/>
<path d="M146.159 127.733C136.967 125.745 131.781 125.543 130.601 127.127C129.483 128.68 129.995 133.183 132.138 140.636C134.281 148.182 136.377 152.25 138.426 152.84C140.538 153.493 144.606 150.822 150.631 144.828C156.345 139.176 159.326 135.527 159.575 133.881C159.885 131.77 155.413 129.72 146.159 127.733ZM161.718 134.068C161.438 136.304 158.193 140.434 151.982 146.459C145.429 152.825 140.771 155.589 138.007 154.75C134.995 153.881 132.324 149.207 129.995 140.729C127.728 132.469 127.371 127.376 128.924 125.45C129.762 124.425 131.998 123.959 135.632 124.053C139.017 124.146 142.79 124.674 146.951 125.636C157.23 128.059 162.152 130.869 161.718 134.068Z" fill="#0D131A"/>
<path d="M121.471 155.356C121.315 156.101 121.905 157.84 123.241 160.573C124.576 163.306 125.477 164.61 125.943 164.486C126.533 164.331 127.169 162.561 127.852 159.176C128.536 155.791 128.613 153.834 128.085 153.306C127.651 152.872 126.455 152.965 124.499 153.586C122.573 154.238 121.564 154.828 121.471 155.356ZM129.296 151.909C130.352 152.872 130.461 155.418 129.623 159.548C128.784 163.648 127.697 165.93 126.362 166.396C125.182 166.831 123.66 165.309 121.797 161.831C119.996 158.477 119.219 156.194 119.468 154.983C119.685 153.959 121.16 152.996 123.893 152.095L129.296 151.909Z" fill="#0D131A"/>
<path d="M64.9665 147.53C66.1466 146.816 66.659 146.288 66.5037 145.946C66.2863 145.387 65.2771 144.766 63.4759 144.083C61.6747 143.431 60.5412 143.229 60.0754 143.477C59.7027 143.664 59.9046 144.502 60.681 145.993C61.4573 147.452 62.0784 148.26 62.5442 148.415C63.0101 148.539 63.8175 148.244 64.9665 147.53ZM62.2182 149.952C61.4107 149.704 60.4946 148.555 59.4698 146.505C58.445 144.362 58.2432 142.965 58.8643 142.313C59.5164 141.599 61.1778 141.738 63.8485 142.732C66.5192 143.726 67.9012 144.735 67.9943 145.76C68.0875 146.567 67.3422 147.53 65.7584 148.648C64.1746 149.766 62.9945 150.201 62.2182 149.952Z" fill="#0D131A"/>
<path d="M67.9943 156.52C69.547 153.384 70.5408 151.676 70.9755 151.396C72.0003 150.744 73.8326 150.185 76.4722 149.719C79.2982 149.191 81.0683 149.223 81.7826 149.813C82.59 150.465 82.7763 153.353 82.3416 158.477C81.9379 163.446 81.3633 166.473 80.618 167.56C80.028 168.43 78.4287 169.035 75.8201 169.377C73.5841 169.657 71.9382 169.672 70.8824 169.424C70.1681 169.268 69.1744 168.212 67.9011 166.256C66.6279 164.331 65.9291 162.871 65.8049 161.877C65.7428 161.412 66.4726 159.626 67.9943 156.52ZM69.4383 157.173C68.1961 159.843 67.5906 161.365 67.6216 161.738C67.6527 162.483 68.134 163.632 69.0657 165.185C70.0284 166.768 70.8047 167.669 71.3948 167.886C72.0159 168.104 73.3667 168.088 75.4474 167.84C77.6523 167.56 78.9411 167.141 79.3137 166.582C79.9038 165.713 80.3851 163.042 80.7578 158.57C81.0994 154.098 81.0528 151.691 80.618 151.35L76.8915 151.21C74.7797 151.521 73.0717 152.064 71.7674 152.84C71.4569 153.058 70.6805 154.502 69.4383 157.173Z" fill="#0D131A"/>
<path d="M38.2284 166.442C37.1104 166.691 36.1632 167.001 35.3869 167.374L35.2937 165.511C36.1322 165.169 37.1725 164.859 38.4147 164.579L41.1165 164.253C41.9549 164.439 43.3058 166.365 45.1691 170.029C47.0013 173.569 47.8709 175.743 47.7777 176.551C47.6535 177.7 46.9392 179.563 45.6349 182.141C44.1443 185.029 42.9021 186.535 41.9084 186.659L38.8805 186.333C37.6073 186.022 36.6601 185.681 36.039 185.308V183.305C36.598 183.771 37.4365 184.175 38.5544 184.516L41.3028 184.889C41.9239 184.796 42.8245 183.569 44.0045 181.209C45.1225 178.911 45.6815 177.374 45.6815 176.597C45.6815 175.759 44.9517 173.864 43.4921 170.914C42.0015 167.964 40.9922 166.396 40.4643 166.209L38.2284 166.442Z" fill="#0D131A"/>
<path d="M121.797 213.863C121.331 214.049 120.989 215.54 120.772 218.335C120.585 220.602 120.523 222.776 120.585 224.856C120.617 225.229 121.191 226.192 122.309 227.744C123.427 229.235 124.157 230.089 124.498 230.306L127.713 231.052C129.545 231.3 130.616 231.316 130.927 231.098C131.393 230.757 131.967 229.546 132.65 227.465C133.333 225.291 133.52 223.894 133.209 223.272C132.712 222.279 130.818 220.415 127.526 217.683C124.203 214.919 122.293 213.646 121.797 213.863ZM119.281 217.962C119.654 214.391 120.228 212.45 121.005 212.139C121.967 211.767 124.374 213.133 128.225 216.239C131.889 219.22 134.048 221.347 134.7 222.62C135.166 223.583 134.979 225.322 134.141 227.838C133.396 230.105 132.681 231.58 131.998 232.263C131.532 232.76 130.197 232.915 127.992 232.729C126.005 232.573 124.592 232.309 123.753 231.937C123.318 231.781 122.418 230.695 121.051 228.676C119.685 226.657 118.986 225.384 118.955 224.856C118.862 223.024 118.971 220.726 119.281 217.962Z" fill="#0D131A"/>
<path d="M124.033 239.716C124.654 238.629 124.902 237.962 124.778 237.713C124.561 237.309 123.722 236.766 122.262 236.083C120.772 235.399 119.794 235.073 119.328 235.104C119.079 235.104 118.862 235.85 118.676 237.34C118.458 238.893 118.474 240.089 118.722 240.927C118.815 241.238 119.312 241.548 120.213 241.859L122.03 242.092C122.682 241.688 123.349 240.896 124.033 239.716ZM126.548 237.34C126.517 238.241 126.02 239.406 125.057 240.834C124.157 242.169 123.38 243.039 122.728 243.443L119.747 243.256C118.256 242.791 117.449 242.278 117.325 241.719C117.014 240.663 116.999 239.079 117.278 236.968C117.527 234.732 117.961 233.521 118.582 233.334C119.328 233.086 120.849 233.521 123.148 234.639C125.446 235.757 126.579 236.657 126.548 237.34Z" fill="#0D131A"/>
<path d="M175.925 214.608C175.615 214.608 174.9 215.431 173.782 217.077C172.664 218.754 172.199 219.717 172.385 219.965L175.599 219.872C177.556 219.531 178.596 219.173 178.72 218.801C178.844 218.521 178.487 217.76 177.649 216.518C176.81 215.276 176.236 214.639 175.925 214.608ZM176.065 213.071C176.81 213.195 177.804 214.189 179.046 216.052C180.257 217.916 180.739 219.127 180.49 219.686C180.149 220.462 178.58 221.068 175.785 221.502C172.959 221.937 171.251 221.829 170.661 221.176C170.164 220.617 170.739 219.096 172.385 216.611C174.031 214.127 175.257 212.947 176.065 213.071Z" fill="#0D131A"/>
<path d="M190.505 199.469L194.185 199.889L193.626 201.799L190.552 201.333C189.092 201.24 188.005 201.24 187.291 201.333C186.887 201.364 186.22 202.264 185.288 204.034C184.419 205.742 183.891 207.031 183.704 207.901C183.456 209.081 183.409 210.711 183.565 212.792C183.751 214.935 184.03 216.115 184.403 216.332L185.894 216.565L189.341 215.913L188.456 217.916C185.94 218.537 184.217 218.537 183.285 217.916C182.571 217.45 182.121 215.711 181.934 212.699C181.748 210.214 181.748 208.506 181.934 207.575C182.058 206.798 182.648 205.385 183.704 203.336C184.915 200.882 185.925 199.609 186.732 199.516C187.54 199.423 188.797 199.407 190.505 199.469Z" fill="#0D131A"/>
<path d="M176.67 102.252L177.742 103.976L178.999 106.118C179.527 107.112 179.698 107.671 179.512 107.795L178.068 107.842L176.111 107.609L178.021 108.308C178.611 108.525 178.999 108.758 179.186 109.006C179.527 109.441 179.698 110.885 179.698 113.339C179.729 115.823 179.434 116.91 178.813 116.599L172.99 114.41L167.028 112.36C170.351 114.596 173.068 116.599 175.18 118.369L176.624 119.627C177.059 120.093 177.167 120.512 176.95 120.885C172.571 128.928 170.164 132.965 169.73 132.996C169.481 132.996 168.534 132.049 166.888 130.155L163.068 125.59L165.91 135.512C166.22 136.909 166.034 138.12 165.351 139.145C164.947 139.766 163.224 141.35 160.18 143.896C157.137 146.443 155.553 147.639 155.429 147.483L155.01 142.918L154.637 136.536L152.82 140.216C152.106 141.676 151.594 142.437 151.283 142.499C150.879 142.592 148.675 141.66 144.668 139.704C140.662 137.748 138.69 136.567 138.753 136.164C138.815 135.822 139.871 134.223 141.92 131.366L145.554 126.382C145.026 126.941 143.846 128.385 142.013 130.714L139.498 133.648L135.445 131.319L131.625 128.711C131.625 128.431 132.712 127.111 134.886 124.751C137.184 122.236 139.218 120.202 140.988 118.649C139.715 119.239 137.743 120.792 135.073 123.307L131.113 126.801C130.74 126.832 128.939 125.481 125.71 122.748C122.511 120.046 120.896 118.494 120.865 118.09C120.834 117.717 121.905 116.258 124.079 113.711C126.16 111.227 128.147 109.053 130.042 107.19C128.768 107.904 126.129 110.202 122.123 114.084C118.396 117.717 116.409 119.534 116.16 119.534C115.725 119.534 114.856 118.4 113.552 116.133C112.278 113.898 111.673 112.531 111.735 112.034C111.797 111.537 112.589 110.311 114.111 108.354C116.067 105.808 118.272 103.634 120.725 101.833C128.303 96.2119 136.315 95.3113 144.762 99.131L145.6 98.805C156.935 93.743 167.245 94.861 176.531 102.159L176.67 102.252Z" fill="#0D131A"/>
<path d="M172.105 113.245L163.674 110.311C161.718 109.783 160.739 109.612 160.739 109.798C160.739 109.954 161.609 110.482 163.348 111.382C164.994 112.252 167.183 113.711 169.916 115.761L175.739 120.652L172.338 126.708C170.723 129.565 169.792 131.009 169.543 131.04C169.202 131.04 166.795 128.369 162.323 123.028L161.019 121.723L161.345 123.587L163.348 131.04C164.528 135.139 165.071 137.297 164.978 137.515L161.345 140.869L156.407 145.061L156.314 138.54C156.283 135.061 156.174 133.167 155.988 132.857C155.677 132.36 153.969 135.046 150.864 140.915C145.802 137.903 142.479 136.071 140.895 135.419L145.041 129.642L149.14 123.913L150.445 122.236C150.6 121.801 149.948 121.972 148.488 122.748C146.128 123.99 143.038 127.111 139.218 132.111L133.396 128.431L138.473 122.888C141.175 120.093 142.992 118.447 143.923 117.95L145.786 116.925L143.737 116.879C140.321 117.096 136.082 119.876 131.02 125.217L122.449 117.95C123.536 116.491 125.166 114.503 127.34 111.988C130.011 108.882 131.75 107.05 132.557 106.491L134.094 105.373L132.371 105.466C129.421 105.932 126.238 107.702 122.822 110.777C120.989 112.454 118.815 114.736 116.3 117.624L112.9 112.314C115.601 107.656 119.126 103.991 123.474 101.32C130.244 97.1281 137.557 96.7244 145.414 100.109L146.019 99.8764C150.243 98.1995 154.125 97.2678 157.665 97.0815C164.249 96.7709 170.273 98.7429 175.739 102.997L177.462 106.538L176.158 106.398L173.084 106.305L170.708 106.584C170.801 106.74 171.5 107.019 172.804 107.423C174.295 107.889 176.127 108.711 178.301 109.892L178.487 112.454C178.549 114.037 178.503 115.031 178.347 115.435L172.105 113.245Z" fill="#00A63C"/>
<path d="M74.3762 65.2662L74.4693 66.4307C67.9168 63.729 62.6685 61.8346 58.7246 60.7477C57.9482 60.5303 57.6066 60.2974 57.6998 60.049L58.9575 59.9558C63.1809 61.1359 68.3205 62.906 74.3762 65.2662Z" fill="#0D131A"/>
<path d="M74.9816 68.7595L75.2145 70.0638C64.7801 64.9708 55.4637 61.2287 47.2652 58.8375C46.5199 58.6201 46.1938 58.3872 46.287 58.1387L47.4981 58.0922C55.7276 60.4213 64.8888 63.977 74.9816 68.7595Z" fill="#0D131A"/>
<path d="M69.1589 63.7292L68.1341 63.4497C67.8236 60.22 67.3577 57.4717 66.7366 55.2047C66.6124 54.7389 66.6435 54.4749 66.8298 54.4128C67.0161 54.3507 67.1869 54.5526 67.3422 55.0184C68.2117 57.7201 68.8173 60.6238 69.1589 63.7292Z" fill="#0D131A"/>
<path d="M66.2242 62.6573L65.2925 62.3778C65.2925 60.7629 65.1217 59.2257 64.7801 57.7662C64.718 57.3935 64.7801 57.1761 64.9665 57.114L65.4323 57.5798C65.9602 58.9462 66.2242 60.6387 66.2242 62.6573Z" fill="#0D131A"/>
<path d="M65.8981 65.2665L66.8764 65.6857L63.1498 68.9465L59.004 71.7414C58.6003 71.9277 58.3518 71.9277 58.2587 71.7414C58.1345 71.5551 58.2742 71.3532 58.6779 71.1358C60.1064 70.2973 62.5132 68.3409 65.8981 65.2665Z" fill="#0D131A"/>
<path d="M153.798 112.127C152.184 106.413 149.389 102.407 145.414 100.109L146.532 99.3174C150.693 101.833 153.55 106.134 155.103 112.221C156.531 117.779 156.64 123.742 155.429 130.108C155.243 131.009 155.025 131.428 154.777 131.366C154.528 131.304 154.466 130.822 154.59 129.922C155.584 123.4 155.32 117.469 153.798 112.127Z" fill="#0D131A"/>
<path d="M157.106 122.562C157.913 111.6 154.87 103.541 147.976 98.386L149.28 97.9668C156.392 103.246 159.264 111.491 157.898 122.702C157.774 123.634 157.603 124.084 157.385 124.053C157.137 123.991 157.044 123.494 157.106 122.562Z" fill="#0D131A"/>
<path d="M151.609 105.792L152.681 107.19C150.32 107.065 148.069 107.407 145.926 108.215C143.845 109.022 141.687 110.342 139.451 112.174C138.861 112.64 138.489 112.795 138.333 112.64C138.147 112.516 138.318 112.19 138.846 111.662C142.665 107.811 146.92 105.854 151.609 105.792Z" fill="#0D131A"/>
</g>
<defs>
<clipPath id="clip0_1_55305">
<rect width="252.658" height="257.319" fill="white" transform="translate(0.708252 0.889404)"/>
</clipPath>
</defs>
</svg>
