<svg width="105" height="15" viewBox="0 0 105 15" fill="none" xmlns="http://www.w3.org/2000/svg">
<path d="M3.21919 14.3435H0.0451429V0.166099H7.45125C10.7311 0.166099 12.8471 2.02821 12.8471 5.28689C12.8471 8.54558 10.7311 10.4288 7.45125 10.4288H3.21919V14.3435ZM7.11269 3.02274H3.21919V7.57221H7.11269C8.86899 7.57221 9.69424 7.06436 9.69424 5.28689C9.69424 3.55175 8.86899 3.02274 7.11269 3.02274ZM19.6227 14.5551C16.0043 14.5551 13.5709 12.3968 13.5709 9.05343C13.5709 5.66778 16.0043 3.53059 19.6227 3.53059C23.2411 3.53059 25.6746 5.66778 25.6746 9.05343C25.6746 12.3968 23.2411 14.5551 19.6227 14.5551ZM19.6227 11.7408C21.7599 11.7408 22.5217 10.9155 22.5217 9.05343C22.5217 7.19132 21.7599 6.32375 19.6227 6.32375C17.4644 6.32375 16.7238 7.19132 16.7238 9.05343C16.7238 10.9155 17.4644 11.7408 19.6227 11.7408ZM30.1449 14.3435H26.9708V0.166099H30.1449V7.67801H32.5571L35.2657 3.74219H39.0322L35.1598 8.86299L38.9687 14.3435H35.2233L32.5783 10.5135H30.1449V14.3435ZM45.432 14.5551C41.8982 14.5551 39.486 12.82 39.486 9.05343C39.486 5.66778 41.8771 3.53059 45.3685 3.53059C48.8388 3.53059 51.1453 5.35037 51.1453 8.67254C51.1453 9.05343 51.103 9.32851 51.0607 9.68824H42.4273C42.5119 11.3176 43.2737 12.0159 45.3262 12.0159C47.2095 12.0159 47.8655 11.5292 47.8655 10.6193V10.4077H51.0395V10.6405C51.0395 12.9469 48.7965 14.5551 45.432 14.5551ZM45.3051 6.00634C43.4218 6.00634 42.6177 6.64115 42.4696 8.01657H48.0982C48.0136 6.61999 47.1672 6.00634 45.3051 6.00634Z" fill="black"/>
<path d="M55.4326 14.3435H52.4913V0.166099H55.6653V6.55651H55.8346C56.1944 4.77905 57.4851 3.53059 60.0032 3.53059C63.1773 3.53059 64.9547 5.66778 64.9547 9.05343C64.9547 12.3968 63.1561 14.5551 59.8551 14.5551C57.4005 14.5551 56.0039 13.4971 55.623 11.4022H55.4326V14.3435ZM55.6653 9.11691C55.6653 10.9579 56.7445 11.6561 58.7548 11.6561C60.8073 11.6561 61.7384 10.979 61.7384 9.05343C61.7384 7.10668 60.8073 6.42955 58.7759 6.42955C56.7234 6.42955 55.6653 7.10668 55.6653 8.94763V9.11691ZM71.9242 14.5551C68.3058 14.5551 65.8724 12.3968 65.8724 9.05343C65.8724 5.66778 68.3058 3.53059 71.9242 3.53059C75.5426 3.53059 77.9761 5.66778 77.9761 9.05343C77.9761 12.3968 75.5426 14.5551 71.9242 14.5551ZM71.9242 11.7408C74.0614 11.7408 74.8232 10.9155 74.8232 9.05343C74.8232 7.19132 74.0614 6.32375 71.9242 6.32375C69.7659 6.32375 69.0253 7.19132 69.0253 9.05343C69.0253 10.9155 69.7659 11.7408 71.9242 11.7408ZM84.9221 14.5551C81.3037 14.5551 78.8703 12.3968 78.8703 9.05343C78.8703 5.66778 81.3037 3.53059 84.9221 3.53059C88.5405 3.53059 90.974 5.66778 90.974 9.05343C90.974 12.3968 88.5405 14.5551 84.9221 14.5551ZM84.9221 11.7408C87.0593 11.7408 87.8211 10.9155 87.8211 9.05343C87.8211 7.19132 87.0593 6.32375 84.9221 6.32375C82.7638 6.32375 82.0232 7.19132 82.0232 9.05343C82.0232 10.9155 82.7638 11.7408 84.9221 11.7408ZM95.4442 14.3435H92.2702V0.166099H95.4442V7.67801H97.8565L100.565 3.74219H104.332L100.459 8.86299L104.268 14.3435H100.523L97.8777 10.5135H95.4442V14.3435Z" fill="#39BADF"/>
</svg>
